<?xml version="1.0" encoding="utf-8"?>
<!-- Generator: Adobe Illustrator 25.3.1, SVG Export Plug-In . SVG Version: 6.00 Build 0)  -->
<svg width="77" version="1.1" id="Layer_1" xmlns="http://www.w3.org/2000/svg" xmlns:xlink="http://www.w3.org/1999/xlink" x="0px" y="0px"
	 viewBox="0 0 77 37.7" style="enable-background:new 0 0 77 37.7;" xml:space="preserve">
<g>
	<path d="M55.7,0c0.5,0,0.9,0.1,1.4,0.1C59.5,0.4,61.9,1,64.1,2c6,2.8,9.8,7.4,11.8,13.7c0.9,2.8,1.2,5.8,1,8.7
		c-0.1,1.9-0.3,3.8-0.8,5.6c0,0.2-0.1,0.3-0.3,0.3c-1,0-2,0-2.9,0c-0.1,0-0.1,0-0.2,0c0.1-0.4,0.2-0.7,0.3-1.1
		c0.6-2.6,0.8-5.3,0.7-8c-0.2-2.8-0.9-5.5-2.2-8c-2.6-5-6.7-8.1-12.2-9.4c-1.9-0.5-3.8-0.6-5.7-0.5c-3.7,0.3-7,1.5-10,3.7
		c-2.5,1.8-4.4,4.1-5.7,6.9c-0.2,0.5-0.4,0.9-0.6,1.4c0,0.1-0.1,0.1-0.2,0.1c-1.1,0-2.2,0-3.3,0c0,0,0,0-0.1,0
		c0.2-0.5,0.3-1,0.5-1.5c1.3-3.5,3.5-6.4,6.3-8.7c2.7-2.3,5.8-3.8,9.2-4.6c1.3-0.3,2.5-0.5,3.8-0.6c0.1,0,0.2,0,0.2,0
		C54.5,0,55.1,0,55.7,0z"/>
	<path d="M0,26.6c0-0.2,0.1-0.3,0.1-0.5c0.3-1.1,1-1.8,1.9-2.3c1-0.6,2.1-0.8,3.3-1c0.6-0.1,1.3-0.2,1.9-0.3c0.1,0,0.2,0,0.3-0.1
		c0.4-0.1,0.7-0.3,0.7-0.8c0.1-0.5-0.1-0.9-0.5-1.2c-0.4-0.3-0.8-0.4-1.3-0.4c-1.2-0.1-2.3,0.2-3.4,0.8c-0.5,0.3-0.9,0.6-1.4,0.9
		c-0.4-0.8-0.8-1.6-1.2-2.5C0.8,19.2,1,19,1.3,18.8c1.6-1,3.4-1.5,5.3-1.5c1,0,1.9,0.2,2.8,0.6c1.4,0.7,2.2,1.8,2.4,3.3
		c0.1,0.4,0.1,0.7,0.1,1.1c0,2.6,0,5.2,0,7.8c0,0.1,0,0.2,0,0.3c-1.1,0-2.2,0-3.4,0c0-0.6,0-1.2,0-1.9c0,0,0,0-0.1,0
		c0,0,0,0.1,0,0.1c-0.9,1.3-2.1,2-3.6,2.1c0,0-0.1,0-0.1,0c-0.3,0-0.6,0-0.9,0c-0.3-0.1-0.6-0.1-0.9-0.2c-1.3-0.3-2.3-1.1-2.6-2.4
		C0.1,27.9,0,27.7,0,27.4C0,27.2,0,26.9,0,26.6z M8.1,24.6c-0.2,0-0.4,0-0.6,0.1c-0.8,0.1-1.6,0.2-2.4,0.5c-0.5,0.2-1,0.4-1.3,0.8
		c-0.3,0.4-0.3,0.9-0.1,1.4C3.9,27.9,4.3,28,4.8,28c1,0.1,1.9-0.3,2.6-1.1C7.9,26.3,8.1,25.5,8.1,24.6z"/>
	<path d="M23.6,12.1c-0.4,0.9-0.7,1.7-1.1,2.5c-0.3-0.1-0.5-0.2-0.7-0.3c-0.4-0.1-0.8-0.2-1.2-0.1c-0.8,0.1-1.3,0.7-1.4,1.5
		c0,0.2,0,0.3,0,0.5c0,0.4,0,0.9,0,1.4c1.8,0,3.7,0,5.5,0c0-0.3,0-0.5,0-0.8c0-0.7,0.1-1.4,0.2-2.2c0.5-1.9,2-3.2,4-3.4
		c1.3-0.1,2.5,0,3.7,0.6c0.1,0,0.2,0.1,0.3,0.1c-0.4,0.9-0.7,1.7-1.1,2.5c-0.4-0.1-0.8-0.3-1.2-0.3c-0.3,0-0.7,0-1,0
		c-0.7,0.2-1.1,0.7-1.2,1.4c-0.1,0.6-0.1,1.3-0.1,2c1.1,0,2.2,0,3.3,0c0,0.9,0,1.9,0,2.8c-1.1,0-2.2,0-3.3,0c0,3.3,0,6.6,0,9.9
		c-1.2,0-2.4,0-3.6,0c0-3.3,0-6.5,0-9.8c-1.8,0-3.7,0-5.5,0c0,3.3,0,6.5,0,9.8c-1.2,0-2.4,0-3.6,0c0-3.3,0-6.5,0-9.8
		c-0.7,0-1.4,0-2.1,0c0-0.9,0-1.9,0-2.8c0.7,0,1.4,0,2.1,0c0-0.3,0-0.6,0-0.9c0-0.7,0.1-1.4,0.2-2c0.5-1.9,2-3.2,4-3.4
		c1.2-0.1,2.4,0,3.5,0.5C23.3,11.9,23.5,12,23.6,12.1z"/>
	<path d="M54.1,17.7c0,0.6,0,1.2,0,1.9c0.9-1.5,2.2-2.3,3.9-2.2c1.7,0,3,0.7,3.9,2.2c0.3-0.3,0.6-0.6,0.9-0.9
		c1.3-1.2,2.9-1.6,4.6-1.1c1.6,0.5,2.5,1.6,2.8,3.2c0.1,0.3,0.1,0.7,0.1,1c0,2.8,0,5.6,0,8.4c0,0.1,0,0.2,0,0.2c-1.2,0-2.4,0-3.6,0
		c0-0.1,0-0.2,0-0.3c0-2.4,0-4.8,0-7.2c0-0.4,0-0.7-0.1-1.1c-0.4-1.5-2.2-1.9-3.3-0.8c-0.5,0.5-0.7,1.2-0.8,1.9
		c-0.1,0.4-0.1,0.7-0.1,1.1c0,2,0,4.1,0,6.1c0,0.1,0,0.2,0,0.3c-1.2,0-2.4,0-3.6,0c0-0.1,0-0.2,0-0.2c0-2.4,0-4.8,0-7.2
		c0-0.4,0-0.8-0.2-1.2c-0.4-1.3-1.9-1.7-2.9-0.9c-0.6,0.4-0.9,1.1-1.1,1.8c-0.1,0.5-0.2,0.9-0.2,1.4c0,2.1,0,4.1,0,6.2
		c0,0.1,0,0.2,0,0.3c-1.2,0-2.4,0-3.6,0c0-4.2,0-8.4,0-12.6C51.7,17.7,52.9,17.7,54.1,17.7z"/>
	<path d="M40.3,30.3c0-4.2,0-8.4,0-12.6c1.1,0,2.2,0,3.4,0c0,0.7,0,1.3,0,2c0,0,0,0,0,0c0.1-0.2,0.2-0.4,0.4-0.6
		c0.7-1.2,1.8-1.7,3.1-1.8c0.6,0,1.2,0,1.7,0.2c0.1,0,0.2,0.1,0.1,0.2c-0.2,1-0.4,2-0.6,3.1c0,0,0,0.1,0,0.1
		c-0.8-0.5-1.6-0.6-2.5-0.3c-1.1,0.4-1.6,1.2-1.9,2.3c-0.1,0.5-0.1,0.9-0.1,1.4c0,1.9,0,3.8,0,5.7c0,0.1,0,0.2,0,0.3
		C42.7,30.3,41.5,30.3,40.3,30.3z"/>
	<path d="M33.7,17.7c1.2,0,2.4,0,3.6,0c0,4.2,0,8.4,0,12.7c-1.2,0-2.4,0-3.6,0C33.7,26.1,33.7,21.9,33.7,17.7z"/>
</g>
</svg>
