<?xml version="1.0" encoding="utf-8"?>
<!-- Generator: Adobe Illustrator 25.3.1, SVG Export Plug-In . SVG Version: 6.00 Build 0)  -->
<svg width="52.2" version="1.1" id="Layer_1" xmlns="http://www.w3.org/2000/svg" xmlns:xlink="http://www.w3.org/1999/xlink" x="0px" y="0px"
	 viewBox="0 0 52.2 60.6" style="enable-background:new 0 0 52.2 60.6;" xml:space="preserve">
<g>
	<path d="M0,47.4C0,32.9,0,18.4,0,3.8c0.1-0.3,0.1-0.6,0.2-1c0.3-1.5,1.2-2.4,2.6-2.7C3.5,0.1,4.2,0,4.8,0C19,0,33.2,0,47.3,0
		c0.6,0,1.2,0,1.8,0.1C50.8,0.4,51.8,1.3,52,3c0.1,0.6,0.1,1.3,0.1,1.9c0,13.8,0,27.6,0,41.4c0,0.7-0.1,1.4-0.1,2
		c-0.1,0.8-0.4,1.5-1.1,1.9c-0.4,0.3-0.8,0.5-1.3,0.7c-3.3,1.4-6.7,2.8-10,4.2c-4,1.7-7.9,3.3-11.9,5c-1.1,0.5-2.2,0.5-3.4,0
		c-5.6-2.4-11.3-4.7-16.9-7.1c-1.9-0.8-3.7-1.6-5.5-2.4c-1.1-0.5-1.7-1.4-1.8-2.6C0.1,47.9,0,47.7,0,47.4z M41,21.7
		c0,0.1,0,0.2,0,0.4c0,1.5,0,3.1,0,4.6c0,0.2,0,0.4,0,0.6c-0.1,0.5-0.4,0.9-1,1c-0.2,0-0.5,0-0.7,0c-1.2,0-1.6-0.3-1.6-1.6
		c0-4.7,0-9.5,0-14.2c0-0.2,0-0.4,0-0.5c0.1-0.6,0.4-0.9,1-1c0.4,0,0.9,0,1.3,0c0.5,0,0.8,0.3,0.9,0.8c0,0.2,0.1,0.4,0.1,0.6
		c0,1.4,0,2.8,0,4.2c0,0.2,0,0.3,0.3,0.3c1,0,2,0,3,0c0.2,0,0.2,0,0.2-0.2c0-1.8,0-3.6-0.1-5.4c-0.1-1.7-1-3-2.9-3.3
		c-1.5-0.2-3-0.2-4.5,0c-1.4,0.3-2.3,1.1-2.7,2.6c-0.1,0.5-0.2,1.1-0.2,1.7c0,4.9,0,9.9,0,14.8c0,0.4,0,0.8,0.1,1.2
		c0.2,1.6,1.1,2.8,2.8,3.1c1.6,0.3,3.2,0.3,4.8,0c1.2-0.3,2.1-1,2.5-2.3c0.2-0.6,0.2-1.1,0.3-1.7c0-1.8,0-3.5,0-5.3
		c0-0.2-0.1-0.3-0.3-0.3c-1,0-2,0-3,0C41.2,21.7,41.1,21.7,41,21.7z M20.9,22.9c0.2,0,0.4,0,0.5,0c0.8,0,1.6,0,2.5-0.1
		c1.5-0.2,2.6-0.9,3-2.4c0.2-0.6,0.3-1.2,0.3-1.8c0-2,0-3.9,0-5.9c0-0.4,0-0.9-0.1-1.3c-0.2-1.3-0.7-2.3-1.9-2.9
		C24.6,8.2,23.8,8.1,23,8c-1.8,0-3.6,0-5.4,0c-0.2,0-0.3,0.1-0.3,0.3c0,7.6,0,15.1,0,22.7c0,0.2,0.1,0.3,0.3,0.3c1,0,1.9,0,2.9,0
		c0.3,0,0.4-0.1,0.4-0.4c0-2.6,0-5.1,0-7.7C20.9,23.1,20.9,23,20.9,22.9z M11.3,11.3c1.5,0,2.9,0,4.3,0c0-1,0-2,0-2.9
		c0-0.2-0.1-0.3-0.3-0.3C12.9,8,10.4,8,8,8C7.7,8,7.7,8.1,7.7,8.4c0,7.5,0,15.1,0,22.6c0,0.2,0.1,0.3,0.3,0.3c2.5,0,4.9,0,7.4,0
		c0.2,0,0.3-0.1,0.3-0.3c0-0.9,0-1.8,0-2.7c0-0.2-0.1-0.3-0.3-0.3c-1.2,0-2.5,0-3.7,0c-0.1,0-0.2,0-0.3,0c0-2.3,0-4.6,0-7
		c1.4,0,2.8,0,4.1,0c0-1.1,0-2.1,0-3.2c-1.4,0-2.8,0-4.1,0C11.3,15.6,11.3,13.5,11.3,11.3z M32.3,8c-0.1,0-0.3,0-0.4,0
		c-0.9,0-1.9,0-2.8,0c-0.4,0-0.4,0-0.4,0.4c0,4.1,0,8.1,0,12.2c0,3.4,0,6.9,0,10.3c0,0.4,0,0.4,0.4,0.4c0.9,0,1.9,0,2.8,0
		c0.3,0,0.4-0.1,0.4-0.4c0-7.5,0-15,0-22.5C32.3,8.3,32.3,8.2,32.3,8z M25.4,43.9c0-1.3,0-2.7,0-4.1c0.4,0.6,0.7,1,1,1.5
		c0,0,0,0,0,0.1c0,0.5,0.5,0.8,0.7,1.3c0.7-1,1.3-1.9,1.9-2.8c0,0,0.1,0,0.1,0c0,1.3,0,2.6,0,4c0.7,0,1.5,0,2.2,0c0-2.4,0-4.7,0-7
		c-0.6,0-1.1,0-1.7,0c-0.1,0-0.3,0.1-0.4,0.2c-0.4,0.6-0.9,1.3-1.3,1.9c-0.2,0.2-0.3,0.5-0.5,0.7c-0.1-0.1-0.1-0.1-0.1-0.2
		c-0.5-0.8-1.1-1.6-1.6-2.4c-0.1-0.2-0.2-0.2-0.4-0.2c-0.5,0-0.9,0-1.4,0c-0.3,0-0.3,0.1-0.3,0.3c0,2.1,0,4.2,0,6.4
		c0,0.1,0,0.2,0,0.3C24.2,43.9,24.8,43.9,25.4,43.9z M16.2,52.3C16.2,52.3,16.2,52.3,16.2,52.3c0.1,0.1,0.1,0.1,0.2,0.1
		c3.1,1.1,6.2,2.1,9.3,3.2c0.1,0,0.3,0,0.4,0c3.2-1.1,6.4-2.1,9.6-3.2c0.1,0,0.2-0.1,0.3-0.1c0,0,0,0,0,0
		C29.4,52.3,22.8,52.3,16.2,52.3z M13.1,39c0.4-0.5,0.8-0.9,1.1-1.4c-0.6-0.7-1.7-1.1-2.8-1.1c-1.5,0-3.2,1-3.8,2.7
		c-0.5,1.4-0.1,3.1,1.1,4c0.8,0.7,1.8,1,2.9,0.9c1-0.1,1.8-0.4,2.6-1.1c0.1-0.1,0.2-0.3,0.2-0.4c0-0.9,0-1.8,0-2.6
		c0-0.1,0-0.2,0-0.2c-1,0-2.1,0-3.1,0c0,0.4,0,0.7,0,1.1c0,0.2,0.1,0.3,0.3,0.3c0.4,0,0.7,0,1.1,0c0,1,0.2,1-0.8,1.2c0,0,0,0-0.1,0
		c-0.5,0.1-1,0-1.3-0.3c-0.4-0.3-0.8-0.7-0.9-1.1c-0.2-0.8-0.1-1.6,0.8-2.2c0.1-0.1,0.2-0.2,0.3-0.3c0.1-0.1,0.2-0.2,0.4-0.3
		c0.2,0,0.5,0,0.7,0C12.3,38.3,12.7,38.7,13.1,39z M32.4,36.9c0,2.4,0,4.7,0,7c0.1,0,0.2,0,0.3,0c1.1,0,2.2,0,3.3,0
		c0.6,0,1.1,0,1.7,0c0.1,0,0.2-0.1,0.2-0.1c0-0.5,0-1,0-1.5c-1.3,0-2.5,0-3.7,0c0-0.4,0-0.8,0-1.2c0.1,0,0.2,0,0.3,0
		c0.9,0,1.8,0,2.7,0c0.1,0,0.2-0.1,0.3-0.1c0-0.4,0-0.9,0-1.4c-1.1,0-2.2,0-3.3,0c0-0.4,0-0.8,0-1.2c1.2,0,2.4,0,3.6,0
		c0-0.6,0-1.1,0-1.6C36,36.9,34.2,36.9,32.4,36.9z M22.9,44c0-0.1,0-0.1,0-0.2c-0.9-2.4-1.9-4.7-2.9-7.1c0-0.1-0.2-0.2-0.3-0.2
		c-0.4,0-0.9,0-1.3,0c-0.2,0-0.3,0.1-0.3,0.2c-0.1,0.4-0.3,0.7-0.4,1.1c-0.8,1.9-1.5,3.7-2.3,5.6c-0.1,0.2-0.1,0.3-0.2,0.6
		c0.6,0,1.2,0,1.8,0c0.1,0,0.2-0.1,0.2-0.2c0.1-0.3,0.3-0.7,0.4-1c0.1-0.1,0.1-0.2,0.3-0.2c0.8,0,1.5,0,2.3,0c0.2,0,0.2,0.1,0.3,0.2
		c0.1,0.3,0.2,0.7,0.4,1c0,0.1,0.2,0.2,0.3,0.2C21.7,44,22.3,44,22.9,44z M39.6,41.6c-0.3,0.3-0.6,0.7-0.9,1c-0.1,0.2-0.1,0.2,0,0.4
		c0.5,0.4,1,0.6,1.6,0.8c1,0.3,2,0.4,3-0.1c0.8-0.4,1.1-1.1,1.4-1.8c0.1-0.2-0.1-0.6-0.2-0.9c-0.3-0.5-0.8-0.9-1.3-1.1
		c-0.6-0.2-1.3-0.4-1.9-0.6c-0.3-0.1-0.5-0.3-0.4-0.6c0-0.2,0.2-0.4,0.6-0.4c0.4,0,0.8,0,1.2,0.2c0.3,0.1,0.6,0.3,0.9,0.4
		c0.4-0.5,0.7-1.1,1.1-1.7c-0.4-0.2-0.8-0.5-1.2-0.6c-1.1-0.4-2.2-0.5-3.3,0.1c-0.9,0.5-1.4,1.4-1.2,2.4c0.1,0.8,0.7,1.3,1.3,1.5
		c0.7,0.3,1.5,0.5,2.2,0.7c0.2,0.1,0.4,0.2,0.4,0.5c0,0.3-0.2,0.4-0.5,0.5c-0.5,0.1-0.9,0-1.3-0.1C40.5,42.1,40.1,41.8,39.6,41.6z"
		/>
	<path d="M20.9,11.2c0.6,0,1.1,0,1.7,0c0.7,0,1,0.5,1.1,1.1c0,0.7,0,1.4,0,2.1c0,1.3,0,2.6,0,3.9c0,1-0.4,1.4-1.4,1.4
		c-0.4,0-0.9,0-1.4,0C20.9,16.9,20.9,14.1,20.9,11.2z"/>
	<path d="M18.9,39c0.3,0.7,0.6,1.4,0.8,2.1c-0.6,0-1.1,0-1.7,0C18.3,40.4,18.6,39.7,18.9,39z"/>
</g>
</svg>
