<?xml version="1.0" encoding="utf-8"?>
<!-- Generator: Adobe Illustrator 25.3.1, SVG Export Plug-In . SVG Version: 6.00 Build 0)  -->
<svg width="122" height="13.9" version="1.1" id="Layer_1" xmlns="http://www.w3.org/2000/svg" xmlns:xlink="http://www.w3.org/1999/xlink" x="0px" y="0px"
	 viewBox="0 0 112 13.9" style="enable-background:new 0 0 112 13.9;" xml:space="preserve">
<g>
	<path d="M72.2,0.1c0.6,0,1.2,0,1.8,0c1.9,0,3.7,0,5.6,0.1c0.6,0,1.2,0.2,1.8,0.4c1.2,0.6,2,1.5,2,2.9c0.1,1.4-0.6,2.4-1.7,3
		c-0.4,0.3-0.9,0.5-1.3,0.6c0.8,1,1.5,2.1,2.3,3.1c1,1.4,1.8,3,3.8,3.3c0,0,0,0.1-0.1,0.1c-0.1,0-0.3,0.1-0.4,0.1
		c-0.9,0-1.9,0-2.8,0c-0.5,0-0.9-0.2-1.1-0.6c-0.5-0.8-1-1.6-1.6-2.4c-0.7-1-1.5-1.9-2.3-2.8c-0.5-0.6-1.2-0.7-2-0.7
		c0,0.9,0,1.9,0,2.8c0,0.5,0,1,0,1.5c0,1.1,0.5,1.6,1.6,1.8c0.1,0,0.3,0.1,0.4,0.2c-2,0-4,0-6,0c0,0,0-0.1,0-0.1
		c0.2-0.1,0.4-0.1,0.6-0.2c0.9-0.3,1.1-0.5,1.2-1.4c0.1-2,0.1-3.9,0.1-5.9c0-1.3,0-2.5,0-3.8c0-1.2-0.1-1.8-1.6-2
		c-0.1,0-0.1-0.1-0.2-0.1C72.2,0.2,72.2,0.2,72.2,0.1z M76.2,7.1c1,0,2,0,2.9-0.4c1.3-0.5,2-1.6,2-3c0-1.3-0.7-2.5-2-2.9
		c-0.8-0.3-1.7-0.3-2.6-0.3c-0.1,0-0.4,0.3-0.4,0.4C76.2,3,76.2,5,76.2,7.1z"/>
	<path d="M99.6,0.2c0.2,0,0.3,0,0.5,0c3.1,0,6.3,0,9.4,0c0.4,0,0.6,0.1,0.8,0.5c0.3,0.7,0.6,1.5,0.9,2.2c0.1,0.1,0.1,0.3,0.1,0.5
		c-0.1,0.1-0.1,0.1-0.2,0.2c-0.1-0.2-0.2-0.3-0.3-0.5c-0.1-0.2-0.3-0.3-0.4-0.4c-1.2-1.5-2.8-2.2-4.7-2.1c-0.6,0-1.2,0-1.8,0
		c-0.2,0-0.5,0.2-0.5,0.3c0,1.9,0,3.9,0,5.9c1,0,2.1,0,3-0.4c1.1-0.4,1.3-1.4,1.6-2.4c0.1,0,0.1,0,0.2,0.1c0,2,0,4,0,5.9
		c-0.6-0.8-0.7-1.9-1.7-2.5c-1-0.5-2-0.4-3.1-0.4c0,1.4,0,2.8,0,4.1c0,0.5,0.1,0.9,0.1,1.4c0,0.5,0.3,0.7,0.8,0.8
		c3,0.8,5.5-0.1,7.2-2.7c0.1-0.2,0.2-0.3,0.5-0.5c0,0.1,0,0.3,0,0.4c-0.2,0.9-0.5,1.9-0.7,2.8c-0.1,0.3-0.2,0.4-0.5,0.4
		c-3.7,0-7.4,0-11.1,0c-0.1,0-0.1,0-0.4-0.1c0.3-0.1,0.5-0.2,0.6-0.2c0.8-0.2,1.3-0.7,1.3-1.6c0-0.7,0.1-1.5,0.1-2.2
		c0-2.4,0-4.9,0-7.3c0-0.3-0.1-0.5-0.1-0.8c0-0.6-0.4-1-1-1.1c-0.2,0-0.4-0.1-0.6-0.1C99.6,0.3,99.6,0.2,99.6,0.2z"/>
	<path d="M4.2,7.1c0,1.8,0,3.5,0,5.2c0,1,0.4,1.3,1.3,1.4c0.2,0,0.4,0.1,0.5,0.2c-2,0-4,0-6.1,0c0.2-0.1,0.3-0.2,0.3-0.2
		c1.2-0.2,1.6-1,1.6-2.1C2,8.4,2,5.2,2,2c0-1.1-0.3-1.3-1.4-1.6c-0.1,0-0.2-0.1-0.3-0.2c0.2,0,0.4,0,0.6,0c3.1,0,6.2,0,9.4,0
		c0.5,0,0.7,0.1,0.9,0.6c0.3,0.9,0.7,1.7,1,2.6c-0.1,0-0.1,0.1-0.2,0.1c-0.1-0.1-0.3-0.2-0.4-0.4C10.2,1,8.3,0.2,5.8,0.4
		c-0.1,0-0.1,0-0.2,0C4.1,0.5,4.3,0.2,4.2,1.8c-0.1,1.6,0,3.2,0,4.9c1,0,2.1,0,3.1-0.3C8.4,6,8.7,5,8.8,3.9C8.9,3.9,8.9,4,9,4
		c0,2,0,4,0,6C8.4,9.1,8.3,8,7.3,7.5C6.3,6.9,5.2,7.1,4.2,7.1z"/>
	<path d="M28,13.8c-1.3,0-2.6,0-4,0c0-0.1,0-0.1,0-0.1c0.9-0.2,1.5-0.8,1.8-1.6c1.5-3.3,2.9-6.6,4.3-9.9c0.1-0.2,0-0.4,0-0.7
		c0.1,0.1,0.2,0.2,0.2,0.3c0.5-0.6,1-1.1,1.5-1.7c0,0.1,0.1,0.3,0.2,0.4c1.3,3.5,2.6,6.9,3.9,10.4c0.1,0.2,0.2,0.4,0.2,0.6
		c0.4,1.1,0.9,2.1,2.3,2.2c0,0,0,0.1-0.1,0.1c-1.8,0-3.6,0-5.5,0c0,0,0,0,0-0.1c0.2-0.1,0.4-0.1,0.6-0.2c0.5-0.2,0.8-0.5,0.6-1.1
		c-0.4-1.2-0.8-2.4-1.2-3.5c0-0.1-0.3-0.3-0.4-0.3c-1.5,0-2.9,0-4.4,0c-0.2,0-0.4,0.2-0.5,0.3c-0.4,1-0.8,2-1.2,3.1
		c-0.3,1-0.1,1.3,0.9,1.5c0.2,0,0.3,0.1,0.5,0.1C28,13.8,28,13.8,28,13.8z M28.2,8.2c1.6,0,3.1,0,4.7,0c-0.8-1.9-1.5-3.8-2.3-5.8
		C29.8,4.4,29,6.2,28.2,8.2z"/>
	<path d="M57.4,13.8c-1.9,0-3.8,0-5.6,0c0,0,0-0.1,0-0.1c0.2-0.1,0.4-0.2,0.7-0.2c0.7-0.2,1.1-0.6,1.1-1.4c0-1.1,0.1-2.3,0.1-3.4
		c0-2.1,0-4.1,0-6.2c0-1.5-0.2-1.7-1.6-2.2c0,0-0.1-0.1-0.3-0.2c2,0,3.9,0,5.7,0c0,0,0,0.1,0,0.1c-0.2,0.1-0.4,0.1-0.6,0.2
		c-0.8,0.2-1.1,0.6-1.1,1.4c0,1.4-0.1,2.7-0.1,4.1c0,1.9,0,3.8,0,5.7c0,1.4,0.1,1.6,1.5,2c0.1,0,0.1,0.1,0.2,0.1
		C57.5,13.8,57.4,13.8,57.4,13.8z"/>
</g>
</svg>
