<?xml version="1.0" encoding="utf-8"?>
<!-- Generator: Adobe Illustrator 25.3.1, SVG Export Plug-In . SVG Version: 6.00 Build 0)  -->
<svg width="114" version="1.1" id="layer" xmlns="http://www.w3.org/2000/svg" xmlns:xlink="http://www.w3.org/1999/xlink" x="0px" y="0px"
	 viewBox="0 0 114 21.4" style="enable-background:new 0 0 114 21.4;" xml:space="preserve">
<style type="text/css">
	.st0{fill-rule:evenodd;clip-rule:evenodd;}
</style>
<g>
	<path class="st0" d="M73.6,15.9c-1.1,0-2.3-0.3-3.3-1c-0.3-0.2-0.7-0.5-1-0.8c-0.1-0.1,0-0.1,0-0.2c0.5-0.4,0.9-0.8,1.3-1.2
		c0.1-0.1,0.2-0.2,0.2-0.2c0.1,0,0.1,0.2,0.2,0.2c1,1,2.5,1.5,3.8,0.9c1.1-0.5,1.3-1.5,1-2.4c-0.1-0.3-0.4-0.5-0.6-0.7
		c-0.4-0.2-0.8-0.4-1.3-0.6c-0.7-0.2-1.5-0.5-2.2-0.8c-1.3-0.6-1.9-1.6-2-3c0-0.5,0.1-1,0.3-1.5c0.3-0.8,0.9-1.3,1.6-1.7
		c1.1-0.6,2.3-0.8,3.5-0.6c1.1,0.1,2.1,0.5,2.9,1.2c0.1,0.1,0.1,0.2,0,0.3c-0.4,0.5-0.8,0.9-1.3,1.4c-0.1,0.1-0.1,0.1-0.2,0
		c-0.9-1-2.1-1.2-3.3-0.8c-0.6,0.2-1,0.6-1.2,1.3C72,6.6,72.3,7.1,73,7.5c0.5,0.3,1.1,0.5,1.7,0.6c0.8,0.2,1.6,0.5,2.2,1
		c0.9,0.6,1.3,1.5,1.4,2.5c0,0.6-0.1,1.3-0.3,1.9c-0.3,0.8-0.8,1.3-1.5,1.7C75.6,15.7,74.6,15.9,73.6,15.9z"/>
	<path class="st0" d="M0,8.8C0,7.5,0.2,6.3,0.6,5.1c0.3-0.9,0.7-1.7,1.2-2.4c0.6-0.8,1.2-1.6,1.9-2.2C3.8,0.3,3.9,0.3,4,0.1
		c0.2-0.2,0.5-0.2,0.7,0C4.9,0.3,5,0.6,4.8,0.8c-0.2,0.3-0.4,0.6-0.5,1C4.1,2,4,2.3,3.9,2.5C3.4,3.7,3,5,2.8,6.3
		C2.7,7.1,2.8,7.8,3,8.6c0.3,1.2,1,2.2,2,2.9c0.5,0.4,1.1,0.7,1.7,1c0.9,0.4,1.8,0.8,2.8,1.1c0.2,0.1,0.4,0.1,0.6,0.2
		c0.2,0.1,0.5,0.1,0.8,0.2c0.2,0.1,0.3,0.1,0.5,0.1c0.3,0.1,0.6,0.1,1,0.2c1.3,0.2,2.6,0.3,3.8,0.2c0.3,0,0.5,0.2,0.5,0.4
		c0,0.2-0.1,0.5-0.4,0.5c-0.9,0.2-1.7,0.2-2.6,0.2c-0.7,0-1.5,0-2.2-0.1c-0.1,0-0.1,0-0.2,0c-0.3,0-0.7-0.1-1-0.1c0,0-0.1,0-0.1,0
		c-0.4,0-0.8-0.1-1.1-0.1c-0.2-0.1-0.5-0.1-0.7-0.2c-0.9-0.2-1.8-0.4-2.6-0.7c-1.1-0.4-2.1-0.9-3-1.6c-0.6-0.4-1.2-0.9-1.6-1.4
		c-0.6-0.7-0.9-1.6-1-2.5C0,8.9,0,8.9,0,8.8z"/>
	<path class="st0" d="M27.5,9.1c0-2.1,0-4.2,0-6.3c0-0.1,0.1-0.2,0.2-0.2c2.7,0,5.3,0,8,0c0.2,0,0.2,0.1,0.2,0.2c0,0.6,0,1.1,0,1.7
		c0,0.1-0.1,0.2-0.2,0.2c-1.9,0-3.8,0-5.7,0c-0.2,0-0.2,0-0.2,0.2c0,1,0,2.1,0,3.1c0,0.2,0,0.2,0.2,0.2c1.8,0,3.6,0,5.3,0
		c0.1,0,0.2,0.1,0.2,0.2c0,0.5,0,1,0,1.6c0,0.1-0.1,0.2-0.2,0.2c-1.8,0-3.6,0-5.3,0c-0.2,0-0.2,0-0.2,0.2c0,1.7,0,3.3,0,5
		c0,0.2,0,0.2-0.2,0.2c-0.6,0-1.3,0-1.9,0c-0.1,0-0.2,0-0.2-0.2C27.5,13.2,27.5,11.2,27.5,9.1L27.5,9.1L27.5,9.1z"/>
	<path class="st0" d="M83.2,10.3c0.7,0,1.4,0,2.1,0c0.2,0,0.2-0.1,0.2-0.2c0-0.2,0-0.4-0.1-0.6c-0.2-0.5-0.5-0.9-1-1.1
		c-0.5-0.2-0.9-0.2-1.4-0.2c-1,0.1-1.8,0.9-1.9,1.9c0,0.2,0,0.2,0.2,0.2C81.8,10.2,82.5,10.3,83.2,10.3z M84.3,11.8
		c-1.1,0-2.1,0-3.2,0c-0.1,0-0.2,0-0.2,0.2c0.2,0.9,0.8,1.5,1.6,1.8c0.8,0.3,1.6,0.2,2.4-0.2c0.3-0.2,0.6-0.4,0.7-0.6
		c0.1-0.1,0.1-0.1,0.2,0c0.4,0.3,0.8,0.6,1.2,1c0.1,0.1,0.1,0.1,0,0.2c-0.9,1.1-2.1,1.6-3.5,1.7c-0.8,0-1.5-0.1-2.2-0.4
		c-1.5-0.6-2.3-1.7-2.6-3.3c-0.1-0.9-0.1-1.7,0.2-2.5c0.2-0.7,0.6-1.3,1.1-1.8c0.9-0.9,2-1.3,3.2-1.3c0.8,0,1.6,0.2,2.3,0.6
		c0.6,0.4,1.1,0.9,1.4,1.6c0.3,0.7,0.5,1.5,0.5,2.4c0,0.2,0,0.4,0,0.6c0,0.2,0,0.2-0.2,0.2C86.4,11.8,85.4,11.8,84.3,11.8z"/>
	<path class="st0" d="M100.6,10.3c0.7,0,1.4,0,2.1,0c0,0,0.2,0.1,0.2-0.1c0-0.7-0.3-1.4-1-1.8c-0.4-0.2-0.9-0.2-1.4-0.2
		c-1,0.2-1.8,0.9-1.9,1.9c0,0.1,0,0.2,0.1,0.2C99.2,10.2,99.9,10.3,100.6,10.3z M101.6,11.8c-1,0-2.1,0-3.2,0c-0.1,0-0.1,0-0.1,0.2
		c0.2,0.9,0.7,1.4,1.5,1.8c0.8,0.3,1.5,0.2,2.3-0.1c0.3-0.2,0.6-0.4,0.8-0.7c0.1-0.1,0.2-0.1,0.2,0c0.4,0.3,0.8,0.6,1.2,1
		c0.1,0.1,0.1,0.1,0.1,0.2c-0.6,0.8-1.5,1.3-2.5,1.5c-0.7,0.2-1.4,0.2-2.1,0.1c-1-0.2-1.8-0.6-2.5-1.2c-0.4-0.4-0.7-0.9-0.9-1.4
		C96,12,96,10.8,96.3,9.7c0.4-1.3,1.2-2.2,2.4-2.8c1.1-0.5,2.3-0.6,3.4-0.2c0.9,0.3,1.5,0.8,2,1.6c0.6,0.8,0.7,1.8,0.8,2.7
		c0,0.2,0,0.5,0,0.6c0,0.1-0.1,0.2-0.2,0.2C103.8,11.8,102.7,11.8,101.6,11.8z"/>
	<path class="st0" d="M62.9,13.2c0.2-0.5,0.3-1,0.5-1.5c0.4-1.1,0.8-2.3,1.2-3.5c0.1-0.4,0.3-0.9,0.4-1.3c0.1-0.1,0.1-0.2,0.2-0.2
		c0.6,0,1.3,0,1.9,0c0.2,0,0.2,0,0.1,0.2C67,7.6,66.7,8.3,66.5,9c-0.3,0.9-0.7,1.9-1.1,2.8c-0.5,1.3-1,2.6-1.5,3.9
		c-0.3,0.8-0.6,1.6-0.9,2.3c-0.2,0.5-0.5,1-0.9,1.3c-0.4,0.3-0.9,0.6-1.4,0.6c-0.6,0.1-1.1,0.1-1.7,0c-0.1,0-0.2-0.1-0.2-0.2
		c0.1-0.6,0.1-1.1,0.2-1.6c0-0.1,0.1-0.2,0.2-0.1c0.5,0.1,0.9,0.2,1.4,0c0.3-0.2,0.5-0.4,0.6-0.7c0.2-0.5,0.5-1.1,0.6-1.6
		c0-0.1,0-0.1,0-0.2c-0.3-0.8-0.6-1.5-1-2.3c-0.6-1.3-1.1-2.6-1.7-3.9c-0.3-0.8-0.6-1.5-1-2.3C58,6.8,58,6.8,58.2,6.8
		c0.7,0,1.4,0,2.1,0c0.1,0,0.2,0,0.2,0.2c0.2,0.7,0.5,1.4,0.8,2.1c0.5,1.2,0.9,2.4,1.4,3.6C62.8,12.9,62.8,13,62.9,13.2z"/>
	<path class="st0" d="M40.6,14c0.9,0,1.7-0.4,2.1-1.2c0.4-0.6,0.5-1.4,0.4-2.1c-0.1-0.6-0.3-1.1-0.6-1.5c-0.5-0.6-1.1-0.8-1.9-0.8
		c-1.1,0-1.9,0.7-2.2,1.7c-0.2,0.7-0.3,1.4-0.1,2.1C38.5,13.2,39.4,14,40.6,14z M45.3,11.5c0,0.6-0.2,1.4-0.6,2.2
		c-0.6,1.1-1.6,1.7-2.7,2.1c-0.7,0.2-1.5,0.2-2.2,0.1c-1.1-0.2-2.1-0.7-2.8-1.6c-0.8-1-1.1-2.2-1-3.5c0.1-0.7,0.3-1.4,0.6-2
		c0.5-0.7,1-1.3,1.8-1.6c1.2-0.6,2.5-0.6,3.8-0.3C43.5,7.1,44.4,8,45,9.3C45.2,9.9,45.3,10.5,45.3,11.5z"/>
	<path class="st0" d="M12.3,14.2c-0.3-0.1-0.6-0.1-0.9-0.2c-0.2,0-0.3,0-0.5-0.1c-0.2-0.1-0.5-0.1-0.7-0.2c0.3-0.6,0.7-1.2,1-1.8
		c0.6-1.3,1.2-2.6,1.5-3.9c0.2-0.7,0.2-1.4,0-2.1c-0.2-0.7-0.6-1.2-1.1-1.6c-0.6-0.5-1.4-0.8-2.1-1C8.6,3.2,7.6,3.1,6.8,2.8
		c-0.3-0.1-0.7-0.1-1-0.3c-0.1,0-0.1-0.1-0.2-0.1c-0.2-0.2-0.2-0.4,0-0.6C6,1.7,6.5,1.5,6.9,1.4c1.2-0.2,2.4-0.2,3.5,0
		c1.3,0.2,2.5,0.6,3.6,1.4c0.8,0.6,1.4,1.3,1.6,2.3c0.2,0.7,0.1,1.3,0,2c-0.2,1.3-0.7,2.4-1.3,3.5c-0.3,0.7-0.7,1.4-1.1,2.1
		C13,13.2,12.6,13.7,12.3,14.2z"/>
	<path class="st0" d="M108,8.2c0.2-0.3,0.4-0.6,0.6-0.8c0.6-0.6,1.3-0.8,2.1-0.8c0.4,0,0.8,0,1.2,0.2c0.8,0.2,1.3,0.7,1.7,1.4
		c0.3,0.6,0.4,1.2,0.4,1.9c0,1.8,0,3.5,0,5.3c0,0.1-0.1,0.2-0.2,0.2c-0.6,0-1.3,0-1.9,0c-0.1,0-0.2,0-0.2-0.2c0-1.5,0-3.1,0-4.6
		c0-0.4,0-0.8-0.1-1.2c-0.2-0.6-0.5-1-1.1-1.1c-0.9-0.2-1.8,0.2-2.2,1c-0.2,0.4-0.3,0.8-0.3,1.3c0,1.5,0,3,0,4.6
		c0,0.1,0,0.2-0.2,0.2c-0.6,0-1.3,0-1.9,0c-0.1,0-0.2,0-0.2-0.1c0-2.8,0-5.6,0-8.4c0-0.1,0-0.1,0.2-0.1c0.6,0,1.2,0,1.8,0
		c0.1,0,0.1,0,0.1,0.1C108,7.4,108,7.8,108,8.2z"/>
	<path class="st0" d="M92,13.2c0.1-0.3,0.2-0.5,0.2-0.7c0.4-1.1,0.8-2.2,1.2-3.3C93.7,8.4,94,7.7,94.2,7c0.1-0.1,0.1-0.2,0.2-0.2
		c0.6,0,1.3,0,2,0c0.2,0,0.2,0,0.1,0.2c-0.5,1.2-0.9,2.3-1.4,3.5c-0.5,1.1-0.9,2.2-1.3,3.3c-0.2,0.6-0.5,1.1-0.7,1.7
		c0,0.1-0.1,0.1-0.2,0.1c-0.7,0-1.4,0-2.1,0c-0.1,0-0.2,0-0.2-0.1c-0.3-0.8-0.6-1.6-1-2.4c-0.6-1.4-1.1-2.8-1.7-4.2
		c-0.2-0.6-0.5-1.3-0.7-1.9c-0.1-0.1-0.1-0.2,0.1-0.2c0.7,0,1.4,0,2.1,0c0.1,0,0.1,0,0.2,0.1c0.3,0.9,0.6,1.8,1,2.7
		c0.3,0.8,0.6,1.5,0.8,2.3C91.6,12.3,91.8,12.7,92,13.2z"/>
	<path class="st0" d="M53.6,10.9c0-0.7,0-1.4,0-2.1c0-0.1,0-0.2-0.2-0.2c-0.4,0-0.8,0-1.2,0c-0.1,0-0.2,0-0.2-0.1c0-0.5,0-1,0-1.4
		c0-0.1,0-0.2,0.2-0.2c0.4,0,0.8,0,1.3,0c0.1,0,0.2,0,0.2-0.2c0-0.7,0-1.4,0-2.2c0-0.1,0-0.2,0.2-0.2c0.6,0,1.2,0,1.8,0
		c0.1,0,0.2,0.1,0.2,0.2c0,0.7,0,1.5,0,2.2c0,0.1,0,0.2,0.2,0.2c0.6,0,1.2,0,1.8,0c0.1,0,0.2,0,0.2,0.2c0,0.5,0,0.9,0,1.4
		c0,0.1,0,0.2-0.2,0.2c-0.6,0-1.2,0-1.9,0c-0.1,0-0.1,0-0.1,0.2c0,1.4,0,2.7,0,4.1c0,0.2,0.1,0.5,0.2,0.7c0.1,0.3,0.4,0.4,0.7,0.5
		c0.3,0.1,0.7,0,1-0.1c0.1-0.1,0.2,0,0.2,0.1c0,0.5,0,1,0,1.4c0,0.1,0,0.1-0.1,0.2c-0.9,0.2-1.7,0.3-2.6,0c-0.9-0.3-1.3-0.9-1.5-1.8
		c-0.1-0.6-0.1-1.1-0.1-1.7C53.6,11.7,53.6,11.3,53.6,10.9z"/>
	<path class="st0" d="M48.4,8.2c0.4-0.6,0.9-1.2,1.5-1.5c0.5-0.2,0.9-0.2,1.4-0.2c0.1,0,0.2,0.1,0.2,0.2c0,0.6,0,1.1,0,1.7
		c0,0.1,0,0.2-0.2,0.1c-0.9-0.2-1.7,0-2.3,0.8c-0.4,0.5-0.5,1-0.5,1.6c0,1.5,0,3,0,4.5c0,0.2,0,0.2-0.2,0.2c-0.6,0-1.2,0-1.8,0
		c-0.1,0-0.2,0-0.2-0.2c0-2.8,0-5.6,0-8.4c0-0.1,0-0.2,0.2-0.2c0.6,0,1.2,0,1.8,0c0.1,0,0.2,0,0.2,0.2C48.4,7.4,48.4,7.8,48.4,8.2z"
		/>
	<path class="st0" d="M9.8,7.8c0,1.1-0.9,2-2,2s-2-0.9-2-2c0-1.1,0.9-2,2-2C8.9,5.7,9.8,6.6,9.8,7.8z"/>
	<path class="st0" d="M9,15.4c0.4,0,0.8,0.1,1.1,0.1c0,0,0.1,0,0.1,0c0.4,0,0.7,0.1,1,0.1c-0.4,0.5-0.8,1-1.3,1.4
		c-0.5,0.5-1,1.1-1.6,1.6c-0.9,0.8-1.9,1.6-2.9,2.4c-0.2,0.1-0.4,0.3-0.6,0.4c-0.1,0.1-0.2,0.1-0.4,0.1c-0.2,0-0.3-0.1-0.4-0.2
		c-0.1-0.2,0-0.3,0.1-0.5c0.2-0.3,0.4-0.5,0.6-0.7c0.7-0.8,1.5-1.5,2.2-2.3C7.7,17,8.4,16.2,9,15.4z"/>
</g>
</svg>
