<?xml version="1.0" encoding="utf-8"?>
<!-- Generator: Adobe Illustrator 25.3.1, SVG Export Plug-In . SVG Version: 6.00 Build 0)  -->
<svg width="110" height="21.8" version="1.1" id="Layer_1" xmlns="http://www.w3.org/2000/svg" xmlns:xlink="http://www.w3.org/1999/xlink" x="0px" y="0px"
	 viewBox="0 0 110 21.8" style="enable-background:new 0 0 110 21.8;" xml:space="preserve">
<g>
	<path d="M10.9,21.8C5.1,21.9,0,17.1,0,10.9C0,4.8,4.8,0,11,0c5.9,0,10.8,4.7,10.9,10.9C21.8,17.4,16.7,21.9,10.9,21.8z M10.9,1.3
		c-5.2,0-9.6,4.1-9.6,9.6c0,5.4,4.4,9.6,9.6,9.6c5.2,0,9.6-4.3,9.6-9.5C20.5,5.6,16.2,1.3,10.9,1.3z"/>
	<path d="M38,7.3c-0.3,0.3-0.6,0.6-0.9,0.9c-0.3-0.2-0.5-0.5-0.8-0.7c-1.8-1.3-3.8-1.6-5.8-0.5c-2.4,1.3-3.1,4.1-1.7,6.4
		c1.4,2.3,4.8,3.1,7,1.5c0.8-0.6,1.4-1.4,1.5-2.5c-0.2,0-0.3,0-0.4,0c-0.9,0-1.9,0-2.8,0c-0.2,0-0.3-0.1-0.3-0.3
		c0-0.9,0-0.9,0.9-0.9c1.2,0,2.4,0,3.7,0c0.3,0,0.4,0.1,0.4,0.4c-0.1,0.6-0.2,1.3-0.4,1.9c-0.5,1.4-1.5,2.5-2.9,3
		c-1.9,0.7-3.9,0.6-5.7-0.4c-2.1-1.2-3.3-3.6-2.9-6c0.4-2.4,2.4-4.3,4.8-4.8C34.1,4.8,36.2,5.5,38,7.3C38,7.2,38,7.3,38,7.3z"/>
	<path d="M68.4,11c0-1.7,0-3.5,0-5.2c0-0.3,0.1-0.4,0.4-0.4c1.4,0.1,2.9,0.1,4.3,0.2c2.5,0.2,4.3,1.9,4.7,4.3c0.3,1.5,0.1,3-0.7,4.3
		c-0.7,1.3-1.8,2.1-3.3,2.2c-1.5,0.1-3,0.1-4.5,0.2c-0.8,0-0.8,0-0.8-0.8C68.4,14.2,68.4,12.6,68.4,11z M69.6,11c0,1.3,0,2.7,0,4
		c0,0,0,0,0,0c0,0.2,0,0.4,0.3,0.4c1.2-0.1,2.3,0,3.5-0.2c1.5-0.2,2.7-1.2,3.1-2.7c0.2-0.7,0.2-1.4,0.1-2.1
		c-0.1-1.7-1.3-3.2-2.9-3.5c-1.1-0.2-2.3-0.2-3.5-0.3c-0.5,0-0.5,0-0.5,0.5C69.6,8.4,69.6,9.7,69.6,11z"/>
	<path d="M63.2,11.5c1.3,1.7,2.5,3.4,3.8,5.1c-0.5,0-1,0-1.4,0c-0.1,0-0.2-0.2-0.3-0.3c-1.1-1.5-2.3-3-3.4-4.5
		c-0.1-0.1-0.1-0.2-0.2-0.2c-0.2-0.1-0.4-0.1-0.6-0.1c0,0-0.1,0.2-0.1,0.4c0,1.4,0,2.9,0,4.3c0,0.3-0.1,0.5-0.4,0.5
		c-0.8,0-0.8,0-0.8-0.8c0-3.3,0-6.6,0-9.9c0-0.3,0.1-0.5,0.4-0.4c1.2,0,2.5,0,3.7,0.1c1.2,0,2.1,0.5,2.6,1.6c0.5,1,0.5,2.1-0.2,3
		c-0.5,0.8-1.3,1.1-2.2,1.2C63.9,11.4,63.6,11.4,63.2,11.5z M61.1,10.3c1.1-0.1,2.2-0.1,3.2-0.2c0.8-0.1,1.3-0.9,1.3-1.7
		c0-0.8-0.6-1.6-1.3-1.6c-1-0.1-2.1-0.1-3.2-0.2C61.1,7.8,61.1,9,61.1,10.3z"/>
	<path d="M97.8,16.6c-0.1-0.1-0.3-0.2-0.4-0.3c-0.9-1-1.8-2-2.7-3.1c-1.3-1.5-2.7-3.1-4-4.6c-0.1-0.1-0.1-0.2-0.2-0.2
		c0,0-0.1,0-0.1,0c0,2.7,0,5.4,0,8.1c-0.4,0-0.7,0-1.1,0c-0.1,0-0.2-0.1-0.2-0.2c0-0.1,0-0.2,0-0.3c0-3.4,0-6.8,0-10.2
		c0-0.1,0-0.1,0-0.2c0-0.1,0.1-0.2,0.1-0.3c0.1,0,0.3,0.1,0.3,0.1c0.6,0.7,1.3,1.5,1.9,2.2c1.7,2,3.4,3.9,5.2,6
		c0-0.2,0.1-0.3,0.1-0.5c0-2.4,0-4.9,0-7.3c0-0.5,0-0.5,0.5-0.5c0.7,0,0.7,0,0.7,0.7c0,3.4,0,6.7,0,10.1
		C97.9,16.2,97.9,16.4,97.8,16.6C97.9,16.6,97.9,16.6,97.8,16.6z"/>
	<path d="M88.1,16.6c-0.4,0-0.8,0-1.1,0c-0.1,0-0.2-0.2-0.3-0.3c-0.5-1-1-2-1.4-3c-0.1-0.2-0.3-0.3-0.5-0.3c-1.3,0-2.7,0-4,0
		c-0.2,0-0.4,0.1-0.5,0.3c-0.5,1-1,2-1.4,3c-0.1,0.3-0.3,0.4-0.6,0.4c-0.3,0-0.6,0-0.9,0c0.1-0.2,0.1-0.3,0.2-0.4
		c1.6-3.5,3.3-7,4.9-10.4c0.1-0.1,0.2-0.2,0.3-0.3c0.1,0.1,0.2,0.2,0.3,0.3c1.6,3.5,3.2,7,4.9,10.5C88,16.3,88,16.4,88.1,16.6z
		 M84.5,11.7c-0.6-1.3-1.2-2.5-1.7-3.7c0,0-0.1,0-0.1,0c-0.6,1.2-1.1,2.4-1.7,3.7C82.2,11.7,83.3,11.7,84.5,11.7z"/>
	<path d="M59.1,16.5C59,16.6,59,16.6,59.1,16.5c-1.2,0.1-1.2,0.1-1.7-1c-0.4-0.8-0.8-1.6-1.1-2.3c-0.1-0.2-0.2-0.3-0.5-0.3
		c-1.3,0-2.7,0-4,0c-0.3,0-0.4,0.1-0.5,0.3c-0.5,1-0.9,2-1.4,3c-0.1,0.2-0.2,0.3-0.5,0.3c-0.3,0-0.6,0-1,0c0.1-0.2,0.2-0.4,0.3-0.6
		c1.6-3.4,3.2-6.8,4.8-10.3c0,0,0-0.1,0-0.1c0.1-0.1,0.2-0.2,0.3-0.2c0.1,0,0.2,0.1,0.3,0.2c0.5,1.1,1,2.2,1.5,3.3
		c1.1,2.4,2.3,4.9,3.4,7.3C59,16.3,59,16.4,59.1,16.5z M53.8,8.1c0,0-0.1,0-0.1,0c-0.6,1.2-1.1,2.4-1.7,3.7c1.2,0,2.3,0,3.5,0
		C54.9,10.5,54.3,9.3,53.8,8.1z"/>
	<path d="M40,5.4C40,5.4,40.1,5.4,40,5.4c1.2-0.1,1.2-0.1,1.2,0.9c0,1.9,0,3.8,0,5.7c0,0.5,0,1,0.1,1.4c0.2,1.3,1.2,2,2.4,2.2
		c0.6,0.1,1.2,0,1.8-0.2c1-0.5,1.6-1.3,1.6-2.4c0-2.4,0-4.8,0-7.2c0-0.3,0.1-0.5,0.4-0.4c0.2,0,0.5,0,0.8,0c0,0.1,0,0.3,0,0.4
		c0,2.3,0,4.7,0,7c0,2.4-1.7,4-4.1,4c-1.2,0-2.3-0.4-3.2-1.2c-0.7-0.7-1-1.5-1-2.4C39.9,10.6,40,8,40,5.4C40,5.5,40,5.5,40,5.4z"/>
	<path d="M106.9,6.6c-1,0-2,0-3,0c-0.3,0-0.4,0.1-0.4,0.4c0,3,0,6,0,9.1c0,0.2,0,0.3,0,0.5c-0.4,0-0.8,0-1.2,0c0-3.3,0-6.6,0-9.9
		c-0.2,0-0.3,0-0.4,0c-0.9,0-1.7,0-2.6,0c-0.2,0-0.3-0.1-0.3-0.3c0-0.9,0-0.9,0.9-0.9c2.2,0,4.4,0,6.7,0c0.3,0,0.4,0.1,0.4,0.4
		C106.9,6,106.9,6.3,106.9,6.6z"/>
	<path d="M109.2,6.1c0.1,0.1,0.1,0.2,0.2,0.3c0.2-0.4,0.3-0.7,0.4-1c0,0,0.1,0,0.1,0c0,0.3,0,0.6,0,1c0,0,0,0,0,0c0-0.2,0-0.5,0-0.7
		c0,0-0.1,0-0.1,0c-0.1,0.3-0.2,0.6-0.4,0.9C109.4,6.4,109.3,6.2,109.2,6.1C109.2,6.1,109.2,6.1,109.2,6.1z"/>
	<path d="M109.2,6.1c-0.1-0.1-0.1-0.3-0.2-0.4c0,0-0.1,0-0.1,0c0,0.2,0,0.5,0,0.7c0,0,0,0,0,0c0-0.3,0-0.6,0-1c0,0,0.1,0,0.1,0
		C109.1,5.7,109.2,5.9,109.2,6.1C109.2,6.1,109.2,6.1,109.2,6.1z"/>
	<path d="M10.9,3.7c0.4,0.8,0.7,1.6,1.1,2.4c0.8,1.5,1.7,3.1,2.5,4.6c0.5,1,0.8,2,0.7,3.1c-0.2,1.8-1.6,3.5-3.4,3.8
		C9.8,18,8,17.1,7.1,15.3C6.5,14.1,6.5,13,7,11.8c0.4-0.9,0.8-1.8,1.3-2.6C9.3,7.5,10.2,5.7,10.9,3.7C10.9,3.8,10.9,3.7,10.9,3.7z"
		/>
</g>
</svg>
