<svg width="230" height="26" viewBox="0 0 230 26" fill="none" xmlns="http://www.w3.org/2000/svg">
<path d="M123.719 25.3231C117.317 25.3231 113.852 20.839 113.467 16.46H117.562C117.807 19.6121 120.361 22.0659 123.756 22.0659C126.836 22.0659 129.109 20.7353 129.109 18.4932C129.109 16.532 127.64 15.4808 124.525 14.745L121.028 13.9386C116.305 12.8168 113.961 10.6108 113.961 7.2484C113.959 3.18331 117.948 0.45166 122.811 0.45166C128.969 0.45166 132.117 3.81547 132.538 7.98279H128.443C128.128 5.11146 125.714 3.70891 122.879 3.70891C120.045 3.70891 118.121 4.89978 118.121 6.96616C118.121 8.61206 119.346 9.3839 122.915 10.2234L126.415 11.0644C130.963 12.1156 133.238 14.4973 133.238 18.3147C133.238 22.3438 129.32 25.3202 123.72 25.3202L123.719 25.3231Z" fill="black"/>
<path d="M4.34021 21.698V4.79569L0.386719 0.801573V24.9717H19.3062L16.0637 21.698H4.34021Z" fill="black"/>
<path d="M109.303 4.06026V0.801573H89.7094V4.06026H101.5" fill="black"/>
<path d="M101.499 8.01879L97.5451 4.06026V24.9717H101.499" fill="black"/>
<path d="M148.563 0.801573H140.305V24.9717H144.259V4.06026H148.946C152.34 4.06026 154.265 5.53193 154.265 8.19446C154.265 10.857 152.341 12.3618 148.946 12.3618H144.259L147.512 15.619H148.561C154.614 15.619 158.392 12.8874 158.392 8.19302C158.392 3.49867 154.614 0.801573 148.561 0.801573H148.563Z" fill="black"/>
<path d="M69.2749 0.801573H65.3214V24.9717H69.2749V0.801573Z" fill="black"/>
<path d="M168.926 21.7145V4.06026H179.353V0.801573H164.971V24.9717H179.632V21.7145H168.925H168.926Z" fill="black"/>
<path d="M191.18 21.7145V4.06026H201.607V0.801573H187.227V24.9717H201.888V21.7145H191.18Z" fill="black"/>
<path d="M215.702 0.801573H208.388V21.1745L212.181 24.9717H215.631C223.363 24.9717 228.227 20.3479 228.227 12.8874C228.227 5.42681 223.434 0.801573 215.702 0.801573ZM215.632 21.7145H212.343V4.06026H215.632C221.055 4.06026 224.101 7.35351 224.101 12.8874C224.101 18.4212 221.057 21.7145 215.632 21.7145Z" fill="black"/>
<path d="M29.0916 0.801573H25.1381V24.9717H29.0916V0.801573Z" fill="black"/>
<path d="M50.2115 14.9826H53.8087V16.0395C53.8087 19.7172 51.0096 22.0644 47.1958 22.0644C42.3673 22.0644 39.5682 18.4227 39.5682 12.8874C39.5682 7.35208 42.2974 3.71035 47.0562 3.71035C50.5037 3.71035 52.5004 5.58809 53.1574 8.02023H57.272C56.3228 3.64411 52.5204 0.45166 46.8823 0.45166C39.8489 0.45166 35.4052 5.98553 35.4052 12.8874C35.4052 19.7892 39.9886 25.3231 46.707 25.3231C50.3811 25.3231 52.8995 23.2726 53.8444 20.6791H53.9156V24.9717H57.6254V11.7944H47.0305L50.2144 14.9826H50.2115Z" fill="black"/>
<path d="M79.6304 0.801576V11.7944H69.2749L72.4588 14.9826H79.6304V24.9717H83.5853V0.801576H79.6304Z" fill="black"/>
<path d="M179.039 14.9826V11.7944H168.929L172.113 14.9826H179.039Z" fill="black"/>
<path d="M201.292 14.9826V11.7944H191.182L194.367 14.9826H201.292Z" fill="black"/>
</svg>
