<svg width="100" height="30" viewBox="0 0 100 30" fill="none" xmlns="http://www.w3.org/2000/svg">
<path d="M14.8255 28.3712C7.35944 28.3712 1.30657 22.3183 1.30657 14.8522C1.30657 7.3861 7.35944 1.33323 14.8255 1.33323C22.2916 1.33323 28.3445 7.3861 28.3445 14.8522C28.3445 22.3183 22.2916 28.3712 14.8255 28.3712ZM14.7989 0C6.63949 0 0 6.61283 0 14.7455C0 22.8783 6.63949 29.4911 14.8255 29.4911C23.0116 29.4911 29.6511 22.8783 29.6511 14.7455C29.6244 6.61283 22.9849 0 14.7989 0Z" fill="black"/>
<path d="M11.0307 21.3851C8.79089 20.3452 7.24434 17.972 7.24434 15.2256C7.24434 13.7857 7.67097 12.4258 8.41758 11.3325L13.2972 18.5853H16.257L21.1366 11.3325C21.8832 12.4258 22.3099 13.7857 22.3099 15.2256C22.3099 17.7854 20.95 20.0252 18.9768 21.1718L19.91 24.7715C23.4831 22.9317 25.9362 19.1986 25.9362 14.9056C25.9362 10.8526 23.7497 7.30619 20.4967 5.35967L14.8438 14.1057L9.24419 5.33301C5.91111 7.2262 3.72461 10.7993 3.72461 14.8789C3.72461 19.3319 6.33774 23.1716 10.1241 24.9315L11.0307 21.3851Z" fill="black"/>
<path d="M40.7847 16.2922L37.1583 8.53278H35.2651V21.0118H37.1583V12.6658L40.0914 18.7453H41.5047L44.3578 12.6658V21.0118H46.251V8.53278H44.3578L40.7847 16.2922Z" fill="black"/>
<path d="M53.3724 17.5454C53.3724 18.9053 52.5458 19.5186 51.5325 19.5186C50.5459 19.5186 49.746 18.932 49.746 17.5454V12.1325H47.9595V17.8121C47.9595 18.8253 48.1728 19.6519 48.8661 20.3185C49.3994 20.8252 50.146 21.1185 51.0526 21.1185C51.9592 21.1185 52.8124 20.7985 53.4257 20.1319V21.0385H55.1856V12.1592H53.3991V17.5454H53.3724Z" fill="black"/>
<path d="M58.6532 18.452V8.53278H56.8667V18.532C56.8667 19.8386 57.6133 20.9852 59.2932 20.9852H60.3864V19.4653H59.6132C58.8932 19.4653 58.6532 19.1186 58.6532 18.452Z" fill="black"/>
<path d="M62.714 15.8389C62.7406 15.3056 62.7673 15.0389 62.9539 14.639C63.2473 13.9723 63.8872 13.519 64.7138 13.519C65.5404 13.519 66.1804 13.9723 66.4737 14.639C66.6603 15.0389 66.7137 15.3056 66.7137 15.8389H62.714ZM64.7138 12.0258C62.4473 12.0258 60.9541 13.679 60.9541 16.5588C60.9541 19.9452 62.714 21.1185 64.9538 21.1185C66.527 21.1185 67.3803 20.6385 68.2869 19.7319L67.1403 18.6653C66.5003 19.3053 65.9937 19.5719 64.9805 19.5719C63.5406 19.5719 62.714 18.612 62.714 17.0921H68.4735V16.3188C68.4735 13.759 67.087 12.0258 64.7138 12.0258Z" fill="black"/>
<path d="M77.2596 14.879C76.7263 14.399 76.0864 14.1324 74.9398 13.9457L73.5266 13.7324C72.94 13.6524 72.4333 13.4391 72.14 13.1458C71.82 12.8525 71.66 12.4525 71.66 11.9992C71.66 10.906 72.46 10.0527 73.9265 10.0527C74.9665 10.0527 75.8731 10.2927 76.6463 11.0126L77.8462 9.83937C76.7797 8.85278 75.6331 8.42615 73.9799 8.42615C71.3934 8.42615 69.8202 9.91937 69.8202 12.0792C69.8202 13.0925 70.1135 13.8924 70.7268 14.4524C71.2601 14.959 72.0867 15.3056 73.0999 15.4389L74.5665 15.6523C75.3131 15.7589 75.6064 15.8922 75.9264 16.1856C76.2464 16.4789 76.4064 16.9322 76.4064 17.4921C76.4064 18.692 75.4464 19.412 73.8199 19.412C72.54 19.412 71.5534 19.1187 70.6468 18.2387L69.3936 19.492C70.5668 20.6919 71.9267 21.1452 73.8199 21.1452C76.433 21.1452 78.2995 19.7853 78.2995 17.4921C78.2729 16.3722 77.9529 15.4923 77.2596 14.879Z" fill="black"/>
<path d="M84.3323 18.9853C84.0123 19.3053 83.559 19.5186 83.0257 19.5186C82.4924 19.5186 82.0658 19.3319 81.7192 18.9853C81.1592 18.452 81.1059 17.5187 81.1059 16.5588C81.1059 15.5989 81.1859 14.6656 81.7192 14.1323C82.0391 13.8123 82.4924 13.6257 83.0257 13.6257C83.559 13.6257 84.0123 13.8123 84.3323 14.1323C84.8656 14.6656 84.9456 15.5989 84.9456 16.5588C84.9456 17.5187 84.8656 18.452 84.3323 18.9853ZM82.9991 12.0258C81.7991 12.0258 80.9459 12.4791 80.3593 13.0657C79.5327 13.9457 79.3193 15.0656 79.3193 16.5588C79.3193 18.052 79.5327 19.1986 80.3593 20.0519C80.9459 20.6385 81.7991 21.0918 82.9991 21.0918C84.199 21.0918 85.0789 20.6385 85.6655 20.0519C86.4921 19.1719 86.7054 18.052 86.7054 16.5588C86.7054 15.0656 86.4921 13.9457 85.6655 13.0657C85.0789 12.4791 84.2256 12.0258 82.9991 12.0258Z" fill="black"/>
<path d="M88.5211 10.906V12.2659H87.5078V13.6257H88.5211V20.9852H90.3076V13.6257H92.0675V12.2659H90.3076V11.0126C90.3076 10.3727 90.6276 9.97269 91.2942 9.97269H92.0675V8.42615H90.9475C89.2943 8.45281 88.5211 9.62605 88.5211 10.906Z" fill="black"/>
<path d="M95.9853 9.57269H94.1988V12.2658H93.1855V13.6257H94.1988V18.5053C94.1988 19.7852 94.9721 20.9852 96.6253 20.9852H97.6919V19.4653H96.9453C96.2786 19.4653 95.9587 19.092 95.9587 18.4254V13.6257H97.6652V12.2658H95.9853V9.57269Z" fill="black"/>
<path d="M99.7466 11.6525C99.7199 11.7592 99.6666 11.8392 99.5866 11.9192C99.5066 11.9992 99.4266 12.0525 99.3466 12.1058C99.2666 12.1591 99.1333 12.1592 99.0266 12.1592C98.92 12.1592 98.8133 12.1325 98.7067 12.1058C98.6 12.0525 98.52 11.9992 98.4667 11.9192C98.3867 11.8392 98.3333 11.7592 98.3067 11.6525C98.28 11.5459 98.2534 11.4392 98.2534 11.3325C98.2534 11.2259 98.28 11.1192 98.3067 11.0126C98.3333 10.9059 98.3867 10.8259 98.4667 10.7459C98.5467 10.6659 98.6267 10.6126 98.7067 10.5593C98.8133 10.5059 98.92 10.5059 99.0266 10.5059C99.1333 10.5059 99.2399 10.5326 99.3466 10.5593C99.4266 10.6126 99.5333 10.6659 99.5866 10.7459C99.6666 10.8259 99.7199 10.9059 99.7466 11.0126C99.7732 11.1192 99.7999 11.2259 99.7999 11.3325C99.7999 11.4659 99.7999 11.5725 99.7466 11.6525ZM99.9066 10.9592C99.8532 10.8526 99.7999 10.7459 99.6932 10.6659C99.5866 10.5859 99.5066 10.5059 99.3999 10.4526C99.2933 10.3993 99.1599 10.3726 99.0266 10.3726C98.8933 10.3726 98.76 10.3993 98.6533 10.4526C98.5467 10.5059 98.44 10.5593 98.3333 10.6659C98.2267 10.7726 98.1734 10.8526 98.12 10.9592C98.0667 11.0659 98.04 11.1992 98.04 11.3325C98.04 11.4659 98.0667 11.5992 98.12 11.7059C98.1734 11.8125 98.2267 11.9192 98.3333 11.9992C98.44 12.0792 98.52 12.1592 98.6533 12.2125C98.76 12.2658 98.8933 12.2925 99.0266 12.2925C99.1599 12.2925 99.2933 12.2658 99.3999 12.2125C99.5066 12.1592 99.6132 12.1058 99.6932 11.9992C99.7732 11.9192 99.8532 11.8125 99.9066 11.7059C99.9599 11.5992 99.9866 11.4659 99.9866 11.3325C99.9866 11.1992 99.9599 11.0926 99.9066 10.9592Z" fill="black"/>
<path d="M99.0004 11.2793H98.8138V10.9326H99.0538C99.0804 10.9326 99.1071 10.9326 99.1338 10.9326C99.1604 10.9326 99.1871 10.9326 99.2138 10.9593C99.2404 10.9593 99.2671 10.986 99.2671 11.0126C99.2938 11.0393 99.2938 11.066 99.2938 11.0926C99.2938 11.146 99.2938 11.1726 99.2671 11.1993C99.2404 11.226 99.2404 11.2526 99.2138 11.2526C99.1871 11.2526 99.1604 11.2793 99.1338 11.2793C99.0804 11.2793 99.0538 11.2793 99.0004 11.2793ZM99.4004 11.3326C99.4537 11.2793 99.4804 11.226 99.4804 11.1193C99.4804 11.0126 99.4538 10.9326 99.3738 10.8793C99.3204 10.826 99.2138 10.7993 99.0804 10.7993H98.6538V11.9192H98.8405V11.4393H99.0271L99.3204 11.9192H99.5071L99.1871 11.4393C99.2671 11.4126 99.3471 11.3593 99.4004 11.3326Z" fill="black"/>
</svg>
