<svg width="100" height="38" viewBox="0 0 100 38" fill="none" xmlns="http://www.w3.org/2000/svg">
<path fill-rule="evenodd" clip-rule="evenodd" d="M77.7033 8.451L77.7194 8.45094C78.8255 8.52639 79.877 8.87795 80.7354 9.73631C81.6105 10.6114 81.9588 11.6873 82.0248 12.8171C82.0344 13.8857 82.4469 14.9514 83.2623 15.7668C84.9125 17.4169 87.5879 17.4169 89.238 15.7668C90.0325 14.9723 90.4445 13.9401 90.474 12.8991L90.4803 12.9054C90.5331 11.7434 90.8764 10.6342 91.7744 9.73629C92.6723 8.83836 93.7815 8.49504 94.9435 8.44222C95.9735 8.41581 97.0034 7.99325 97.7957 7.20097C99.4595 5.56357 99.4595 2.8698 97.7957 1.2324C96.1583 -0.40499 93.4646 -0.40499 91.8272 1.2324C91.0349 2.02469 90.6123 3.05466 90.5859 4.08464C90.5331 5.24666 90.1898 6.35586 89.2919 7.25379C88.428 8.11764 87.3686 8.46818 86.2547 8.54057C85.1428 8.46813 84.107 8.11757 83.2179 7.25381C82.3199 6.35588 81.9766 5.24668 81.9238 4.08466L81.9171 4.0914C81.8843 3.05514 81.4725 2.02861 80.6815 1.23765C79.0314 -0.412505 76.356 -0.412505 74.7058 1.23765C73.825 2.11841 73.4144 3.29126 73.4738 4.44439C73.3699 5.47452 73.0107 6.44902 72.2059 7.25381C71.3467 8.11299 70.2941 8.4644 69.1868 8.5394C68.0979 8.53359 67.0071 8.94611 66.1763 9.77695C64.5262 11.4271 64.5262 14.1025 66.1763 15.7527C67.8265 17.4029 70.5019 17.4029 72.1521 15.7527C72.9431 14.9617 73.3549 13.9351 73.3876 12.8987L73.3943 12.9055C73.4471 11.7434 73.7904 10.6342 74.6884 9.73631C75.5465 8.87819 76.5975 8.5266 77.7033 8.451ZM46.5883 16.3916C46.5883 16.0747 46.826 15.8106 47.1429 15.8106C47.4598 15.8106 47.7239 16.0747 47.7239 16.3916V28.7249V30.0718V32.4487C47.7239 32.792 47.4862 33.0297 47.1693 33.0297C46.8524 33.0297 46.5883 32.792 46.5883 32.4487V16.3916ZM31.6631 22.4131C31.9272 22.4131 32.1913 22.1754 32.1913 21.9113C32.1913 21.6472 31.9272 21.3831 31.6631 21.3831H27.9657V16.6822C27.9657 16.3653 27.7016 16.1012 27.3847 16.1012C27.0678 16.1012 26.8301 16.3653 26.8301 16.6822V20.8813V21.9113V29.9398C26.8301 32.1846 28.3091 33.1618 30.1313 33.1618C30.7916 33.1618 31.3197 33.0298 31.7951 32.8713C32.0328 32.7921 32.1649 32.6072 32.1649 32.3959C32.1649 32.1318 31.9008 31.8941 31.6631 31.8941C31.6147 31.8941 31.5465 31.9163 31.4519 31.9471L31.4519 31.9471C31.2368 32.0172 30.8847 32.1318 30.3162 32.1318C28.9693 32.1318 27.9657 31.5244 27.9657 29.8606V22.4395H31.6631V22.4131ZM39.5604 26.3744C37.8702 25.8991 36.2856 25.3973 36.2856 24.1032V24.0504C36.2856 22.862 37.342 21.9904 38.953 21.9904C40.0886 21.9904 41.2242 22.3602 42.2278 22.9676C42.307 23.0204 42.4127 23.0468 42.5447 23.0468C42.8352 23.0468 43.0993 22.7827 43.0993 22.4922C43.0993 22.2281 42.9408 22.0697 42.8088 21.9904C41.6732 21.3566 40.2735 20.9341 39.0058 20.9341C36.7346 20.9341 35.1236 22.2809 35.1236 24.1824V24.2353C35.1236 26.2955 37.1839 26.8879 39.0919 27.4364L39.1643 27.4572C40.8017 27.9062 42.2806 28.4344 42.2806 29.8077V29.8605C42.2806 31.2074 41.0394 32.1053 39.4548 32.1053C38.0551 32.1053 36.761 31.6563 35.5462 30.7584C35.4669 30.6792 35.3085 30.6528 35.1764 30.6528C34.8859 30.6528 34.6218 30.9169 34.6218 31.2074C34.6218 31.3923 34.7275 31.5771 34.8331 31.6563C36.0215 32.5543 37.8174 33.1881 39.402 33.1881C41.6732 33.1881 43.469 31.8412 43.469 29.7549V29.6756C43.4426 27.6157 41.4619 26.9026 39.5604 26.3744ZM63.2794 20.9076C59.7669 20.9076 57.2052 23.7599 57.2052 27.0611V27.1139C57.2052 30.4151 59.7405 33.2145 63.2266 33.2145C66.739 33.2145 69.3008 30.3623 69.3008 27.0611V27.0082C69.3008 23.707 66.7655 20.9076 63.2794 20.9076ZM68.0859 27.0875C68.0859 29.8605 66.0788 32.1317 63.2794 32.1317C60.5592 32.1317 58.4464 29.8605 58.4464 27.0347V26.9818C58.4464 24.2088 60.4536 21.9376 63.253 21.9376C65.9732 21.9376 68.0859 24.2088 68.0859 27.0347V27.0875ZM12.5963 27.0347C12.5963 23.6278 14.9996 20.9076 18.1687 20.9076C21.4699 20.9076 23.5563 23.6278 23.5563 26.9818C23.5563 27.2459 23.2658 27.51 23.0017 27.51H22.3414H17.5877H15.6334C15.3165 27.51 15.1052 27.2987 15.1052 27.0082C15.1052 26.7177 15.3165 26.48 15.6334 26.48H22.3414C22.1566 24.1296 20.8097 21.9376 18.1159 21.9376C15.7919 21.9376 13.996 23.8919 13.7847 26.5065C13.7583 26.9026 13.7583 27.2987 13.8111 27.6949C14.0752 30.5207 16.1352 32.1581 18.4064 32.1581C20.0966 32.1581 21.2586 31.4715 22.2094 30.5471C22.315 30.4679 22.4207 30.3887 22.5791 30.3887C22.8696 30.3887 23.1337 30.6264 23.1337 30.9169C23.1337 31.0489 23.0809 31.181 22.9489 31.313C21.7868 32.4486 20.4664 33.2145 18.3536 33.2145C15.2637 33.2145 12.5963 30.7584 12.5963 27.0875V27.0347ZM77.4044 20.9076C73.9712 20.9076 71.8056 23.6542 71.6999 26.8498V27.0611V27.1139V37.3872C71.6999 37.7305 71.964 37.9682 72.281 37.9682C72.5979 37.9682 72.8355 37.7305 72.8355 37.3872V30.8904C73.8127 32.2902 75.3709 33.2145 77.3516 33.2145C80.8641 33.2145 83.4258 30.3623 83.4258 27.0611V27.0082C83.4258 23.707 80.8905 20.9076 77.4044 20.9076ZM82.0789 27.0611V27.1139C82.0789 27.8798 81.9204 28.6192 81.6563 29.2795C81.6035 29.4379 81.5244 29.5699 81.4452 29.7019L81.4451 29.702C81.4319 29.7416 81.4121 29.7746 81.3923 29.8076C81.3724 29.8407 81.3526 29.8737 81.3394 29.9133C80.9697 30.5207 80.4943 31.0225 79.9133 31.4186C79.8869 31.4451 79.8539 31.4649 79.8209 31.4847C79.7879 31.5045 79.7549 31.5243 79.7284 31.5507C79.0682 31.9468 78.2759 32.1581 77.4044 32.1581H77.1403C74.737 32.0261 73.0468 30.1246 72.8091 27.6421V26.8498H72.7827C72.862 24.156 74.605 21.964 77.3252 21.964H77.5893C77.7477 21.964 77.9326 21.9904 78.0911 22.0168C78.408 22.0697 78.7249 22.1489 79.0154 22.2545C79.1099 22.286 79.1951 22.327 79.2764 22.3661L79.2765 22.3661C79.3315 22.3925 79.3847 22.4181 79.4379 22.4394C79.4776 22.4526 79.5106 22.4724 79.5436 22.4922C79.5766 22.512 79.6096 22.5318 79.6492 22.545C80.3887 22.9676 80.9961 23.6014 81.4187 24.3673C81.4979 24.4993 81.5771 24.6578 81.6299 24.7898C81.6563 24.8691 81.6894 24.9417 81.7224 25.0143C81.7554 25.0869 81.7884 25.1596 81.8148 25.2388C81.9997 25.8462 82.0789 26.4272 82.0789 27.0611ZM55.3324 21.9904L50.341 26.5329L55.7813 32.1053C56.019 32.3166 55.9926 32.6863 55.7813 32.8976C55.6757 33.0032 55.5172 33.056 55.3852 33.056C55.2531 33.056 55.0947 33.0032 54.989 32.8976L49.1525 26.9818C48.9413 26.7706 48.9413 26.4536 49.1261 26.216L54.4609 21.2774C54.6457 21.0397 55.0155 20.9869 55.2531 21.1981C55.4908 21.383 55.5436 21.7527 55.3324 21.9904ZM5.07064 20.9341H4.75372C1.74303 20.9341 0 22.994 0 25.8198V32.6071C0 32.9504 0.237686 33.1881 0.554601 33.1881C0.871516 33.1881 1.13561 32.9504 1.13561 32.6071V26.0311C1.13561 23.575 2.50891 21.964 4.91218 21.964C7.31545 21.964 8.68875 23.575 8.68875 26.0311V32.6071C8.68875 32.9504 8.95284 33.1881 9.26976 33.1881C9.58667 33.1881 9.82436 32.9504 9.82436 32.6071V25.8198C9.82436 22.994 8.08133 20.9341 5.07064 20.9341ZM88.8719 27.51C88.555 27.51 88.3437 27.2987 88.3437 27.0082C88.3437 26.7177 88.555 26.48 88.8719 26.48H95.5799C95.3951 24.1296 94.0482 21.9376 91.3544 21.9376C89.0303 21.9376 87.2345 23.8919 87.0232 26.5065C86.9968 26.9026 86.9968 27.2987 87.0496 27.6949C87.3137 30.5207 89.3737 32.1581 91.6449 32.1581C93.3351 32.1581 94.4971 31.4715 95.4479 30.5471C95.5535 30.4679 95.6591 30.3887 95.8176 30.3887C96.1081 30.3887 96.3722 30.6264 96.3722 30.9169C96.3722 31.0489 96.3194 31.181 96.1873 31.313C95.0253 32.4486 93.7048 33.2145 91.5921 33.2145C88.5022 33.2145 85.8348 30.7584 85.8348 27.0875V27.0347C85.8348 23.6278 88.2381 20.9076 91.4072 20.9076C94.7084 20.9076 96.7948 23.6278 96.7948 26.9818C96.7948 27.2459 96.5042 27.51 96.2402 27.51H95.5799H90.8262H88.8719ZM96.6865 6.09176C96.1848 6.59355 95.5245 6.85764 94.8114 6.85764C94.0984 6.85764 93.4381 6.59355 92.9364 6.09176C91.9064 5.06179 91.9064 3.37158 92.9364 2.34161C93.4381 1.83982 94.0984 1.57573 94.8114 1.57573C95.5245 1.57573 96.1848 1.83982 96.6865 2.34161C97.1883 2.84339 97.4524 3.50363 97.4524 4.21668C97.4524 4.92974 97.1883 5.58998 96.6865 6.09176Z" fill="black"/>
</svg>
