<svg width="102" height="13" viewBox="0 0 102 13" fill="none" xmlns="http://www.w3.org/2000/svg">
<path d="M14.1691 0.0833342H11.6595C11.5026 0.0833342 11.3719 0.222223 11.3719 0.388889V8.33333L3.18936 0.749999C2.66651 0.249999 2.06524 0 1.46397 0C0.914981 0 0 0.222222 0 1.80556V12.5833C0 12.75 0.130712 12.8889 0.287565 12.8889H2.79723C2.95408 12.8889 3.08479 12.75 3.08479 12.5833V4.61111L11.3458 12.3056C11.8425 12.7778 12.3653 13 12.9404 13C13.5156 13 14.4567 12.75 14.4567 11.1111V0.361112C14.4306 0.194445 14.326 0.0833342 14.1691 0.0833342Z" fill="black"/>
<path d="M31.0276 0.0281402H28.2588C28.0839 0.0281402 27.9382 0.168832 27.9382 0.337664V9.00433C27.9382 9.70779 27.0055 10.0736 25.1985 10.0736H21.497C19.6608 10.0736 18.699 9.70779 18.699 9.00433V0.309526C18.699 0.140694 18.5533 0 18.3784 0H15.5804C15.4056 0 15.2598 0.140694 15.2598 0.309526V9.11688C15.2598 9.73593 15.3764 10.2424 15.5804 10.6926C15.7845 11.1147 16.0759 11.4805 16.4257 11.79C16.7754 12.0714 17.1835 12.2965 17.6206 12.4654C18.0578 12.6342 18.5242 12.7468 18.9905 12.8312C19.4568 12.9156 19.9523 12.9719 20.4186 12.9719C20.885 13 21.3513 13 21.7593 13H24.8196C27.0638 13 28.6668 12.6905 29.6869 12.0996C30.7653 11.4524 31.3191 10.4675 31.3191 9.14502V0.309526C31.3482 0.140694 31.2025 0.0281402 31.0276 0.0281402Z" fill="black"/>
<path d="M45.7795 2.61123V0.308857C45.7795 0.14039 45.6446 0 45.4827 0H32.4228C32.2609 0 32.126 0.14039 32.126 0.308857V2.61123C32.126 2.7797 32.2609 2.92009 32.4228 2.92009H37.3607V12.6911C37.3607 12.8596 37.4957 13 37.6576 13H40.248C40.4099 13 40.5448 12.8596 40.5448 12.6911V2.92009H45.5097C45.6716 2.89201 45.7795 2.7797 45.7795 2.61123Z" fill="black"/>
<path d="M48.3043 6.76674L50.1928 3.90281L52.1079 6.76674H48.3043ZM51.9483 0.954644C51.5227 0.336933 50.9642 0 50.2726 0C49.6076 0 49.0491 0.336933 48.6235 0.954644L41.0162 12.5227C40.963 12.6069 40.9364 12.7192 40.9896 12.8315C41.0428 12.9158 41.1226 13 41.229 13H44.2613C44.3677 13 44.4475 12.9438 44.5007 12.8596L46.469 9.65875H54.023L56.0445 12.8596C56.0977 12.9438 56.1775 13 56.2839 13H59.1566C59.263 13 59.3428 12.9438 59.396 12.8315C59.4492 12.7473 59.4492 12.6069 59.3694 12.5227L51.9483 0.954644Z" fill="black"/>
<path d="M75.9797 0.0833342H73.1912C73.0169 0.0833342 72.8717 0.222223 72.8717 0.388889V8.33333L63.78 0.749999C63.17 0.249999 62.5309 0 61.8629 0C61.2529 0 60.2362 0.222222 60.2362 1.80556V12.5833C60.2362 12.75 60.3815 12.8889 60.5557 12.8889H63.3443C63.5185 12.8889 63.6638 12.75 63.6638 12.5833V4.61111L72.8426 12.3056C73.3945 12.7778 73.9755 13 74.6145 13C75.2535 13 76.2992 12.75 76.2992 11.1111V0.361112C76.2992 0.194445 76.154 0.0833342 75.9797 0.0833342Z" fill="black"/>
<path d="M79.2872 0H77.327C77.2045 0 77.1024 0.140692 77.1024 0.309523V12.6905C77.1024 12.8593 77.2045 13 77.327 13H79.2872C79.4097 13 79.5118 12.8593 79.5118 12.6905V0.309523C79.5118 0.112554 79.4097 0 79.2872 0Z" fill="black"/>
<path d="M98.688 12.4688L92.1072 6.51398L98.688 0.531183C98.7664 0.447312 98.8186 0.307526 98.7664 0.195698C98.7141 0.0838701 98.6358 0 98.5052 0H95.1626C95.1104 0 95.032 0.0279561 94.9798 0.0559131L89.9658 4.55699L84.9257 0.0559131C84.8735 -8.53557e-07 84.8213 0 84.7429 0H81.4003C81.2958 0 81.1914 0.0838701 81.1391 0.195698C81.0869 0.307526 81.1391 0.447312 81.2175 0.531183L87.7983 6.51398L81.2175 12.4688C81.1391 12.5527 81.0869 12.6925 81.1391 12.8043C81.1914 12.9161 81.2697 13 81.4003 13H84.8996C84.978 13 85.0302 12.972 85.0824 12.9161L89.9397 8.44301L94.8231 12.9161C94.8753 12.972 94.9276 13 95.0059 13H98.4791C98.5836 13 98.688 12.9161 98.7403 12.8043C98.8186 12.6645 98.7925 12.5247 98.688 12.4688Z" fill="black"/>
<path d="M101.165 12.1541C101.272 12.1541 101.336 12.1096 101.336 12.0428C101.336 11.976 101.293 11.9092 101.165 11.9092C101.122 11.9092 101.079 11.9092 101.058 11.9092V12.1541H101.165ZM101.079 12.5993H100.908V11.7979C100.972 11.7979 101.079 11.7757 101.208 11.7757C101.357 11.7757 101.422 11.7979 101.465 11.8425C101.507 11.887 101.55 11.9315 101.55 12.0205C101.55 12.1096 101.486 12.1764 101.379 12.2209C101.465 12.2432 101.486 12.3099 101.507 12.4212C101.529 12.5548 101.55 12.5993 101.572 12.6216H101.379C101.357 12.5993 101.336 12.5325 101.315 12.4212C101.293 12.3322 101.25 12.2877 101.143 12.2877H101.058V12.5993H101.079ZM100.586 12.1764C100.586 12.5325 100.843 12.8219 101.186 12.8219C101.529 12.8219 101.786 12.5325 101.786 12.1764C101.786 11.8202 101.529 11.5308 101.186 11.5308C100.865 11.5308 100.586 11.8202 100.586 12.1764ZM102 12.1764C102 12.6216 101.657 13 101.208 13C100.758 13 100.394 12.6438 100.394 12.1764C100.394 11.7089 100.758 11.375 101.208 11.375C101.657 11.375 102 11.7312 102 12.1764Z" fill="black"/>
</svg>
