<svg width="95" height="28" viewBox="0 0 95 28" fill="none" xmlns="http://www.w3.org/2000/svg">
<path fill-rule="evenodd" clip-rule="evenodd" d="M14.6411 8.47764C14.4152 8.70355 14.0387 8.70355 13.8128 8.47764L10.0478 4.73769C9.82186 4.51179 9.82186 4.13528 10.0478 3.90938L13.7877 0.169427C14.0136 -0.0564758 14.3901 -0.0564758 14.616 0.169427L18.356 3.90938C18.5819 4.13528 18.5819 4.51179 18.356 4.73769L14.6411 8.47764ZM58.6416 10.6826C59.7642 9.39772 60.9882 8.82893 62.6325 8.82893C65.7952 8.82893 68.1044 11.339 68.1044 14.8028C68.1044 18.3169 65.745 20.8771 62.5823 20.8771C60.9759 20.8771 59.6958 20.2747 58.6416 18.9695V19.8229C58.6416 20.4504 58.5663 20.5508 57.9137 20.5508H57.3866C56.7591 20.5508 56.6587 20.4755 56.6587 19.8229V1.12312C56.6587 0.495615 56.734 0.395214 57.3866 0.395214H57.9137C58.5412 0.395214 58.6416 0.470514 58.6416 1.12312V10.6826ZM62.3062 19.095C60.0472 19.095 58.4659 17.3379 58.4659 14.8028C58.4659 12.343 60.0472 10.6111 62.2811 10.6362C64.4398 10.6362 66.0713 12.4183 66.0713 14.7526C66.0713 17.2626 64.49 19.095 62.3062 19.095ZM37.9822 10.335C39.0113 9.10509 39.5134 8.80388 40.6178 8.80388C41.4712 8.80388 42.1991 9.10509 42.2242 9.45649C42.2242 9.52342 42.1796 9.61266 42.1201 9.73165L42.12 9.73185L42.1199 9.73192L42.1198 9.73213L42.1198 9.73219L42.1197 9.7324L42.1197 9.73247L42.1196 9.73267L42.1195 9.73274L42.1194 9.73295L42.1194 9.73302L42.1193 9.73322L42.1193 9.73329L42.1192 9.7335L42.1191 9.73357L42.119 9.73377L42.119 9.73384L42.1189 9.73396C42.0895 9.79288 42.0564 9.85906 42.0234 9.9334C41.9481 10.0338 41.8979 10.1342 41.8477 10.2346C41.7975 10.3099 41.7536 10.3915 41.7096 10.473C41.6657 10.5546 41.6218 10.6362 41.5716 10.7115C41.5214 10.7868 41.4712 10.837 41.3959 10.8621C41.3206 10.9123 41.2453 10.8872 41.17 10.8621C41.1172 10.847 41.0644 10.8297 41.0109 10.8121C40.8864 10.7712 40.7582 10.7291 40.6178 10.7115C39.7644 10.586 38.8607 10.9876 38.434 11.7406C38.1328 12.2928 37.9822 13.1211 37.9822 14.5017V19.848C37.9822 20.5006 37.8818 20.5759 37.2543 20.5759H36.7272C36.0746 20.5759 35.9993 20.4755 35.9993 19.848V9.80789C35.9993 9.15528 36.0997 9.07999 36.7272 9.07999H37.2543C37.9069 9.07999 37.9822 9.18039 37.9822 9.80789V10.335ZM72.8949 10.335C73.924 9.10509 74.4261 8.80388 75.5305 8.80388C76.3839 8.80388 77.1369 9.10509 77.1369 9.45649C77.1369 9.52343 77.0923 9.61267 77.0328 9.73166L77.0327 9.73188L77.0324 9.73249C77.0027 9.79178 76.9694 9.85844 76.9361 9.9334C76.8608 10.0338 76.8106 10.1341 76.7604 10.2345L76.7604 10.2346C76.7102 10.3099 76.6663 10.3915 76.6224 10.4731C76.5784 10.5546 76.5345 10.6362 76.4843 10.7115C76.4341 10.7868 76.3839 10.837 76.3086 10.8621C76.2333 10.9123 76.158 10.8872 76.0827 10.8621C76.0299 10.847 75.9771 10.8297 75.9236 10.8121C75.7991 10.7712 75.671 10.7291 75.5305 10.7115C74.6771 10.586 73.7735 10.9876 73.3467 11.7406C73.0455 12.2928 72.8949 13.1211 72.8949 14.5017V19.848C72.8949 20.5006 72.7945 20.5759 72.167 20.5759H71.6399C70.9873 20.5759 70.912 20.4755 70.912 19.848V9.80789C70.912 9.15528 71.0124 9.07999 71.6399 9.07999H72.167C72.8196 9.07999 72.8949 9.18039 72.8949 9.80789V10.335ZM46.2932 15.7567C46.2932 16.836 46.3936 17.4133 46.6446 17.9153C47.0211 18.6432 47.8996 19.0699 48.8785 19.0699C49.8574 19.0699 50.7108 18.6181 51.0873 17.9153C51.3383 17.4133 51.4388 16.836 51.4388 15.7567V9.78282C51.4388 9.15531 51.514 9.05491 52.1667 9.05491H52.6938C53.3213 9.05491 53.4217 9.13021 53.4217 9.78282V15.9826C53.4217 17.6643 53.1456 18.593 52.3675 19.4465C51.5392 20.3752 50.2841 20.8772 48.8785 20.8772C47.4478 20.8772 46.1928 20.3752 45.3645 19.4465C44.5864 18.593 44.3102 17.6894 44.3102 15.9826V9.78282C44.3102 9.15531 44.3856 9.05491 45.0382 9.05491H45.5653C46.1928 9.05491 46.2932 9.13021 46.2932 9.78282V15.7567ZM82.0848 4.73766C82.0848 5.51577 81.4573 6.14328 80.6791 6.14328C79.901 6.14328 79.2735 5.51577 79.2735 4.71256C79.2735 3.95955 79.901 3.33204 80.6791 3.33204C81.4573 3.33204 82.0848 3.95955 82.0848 4.73766ZM81.633 19.823C81.633 20.4505 81.5577 20.5509 80.9051 20.5509H80.3779C79.7504 20.5509 79.65 20.4756 79.65 19.823V9.78283C79.65 9.15532 79.7253 9.05492 80.3779 9.05492H80.9051C81.5326 9.05492 81.633 9.13022 81.633 9.78283V19.823ZM91.8761 9.07994C91.3992 9.07994 91.3992 9.07993 91.0729 9.40624L87.2326 13.3219V1.12312C87.2326 0.470514 87.1322 0.395214 86.5047 0.395214H85.9776C85.325 0.395214 85.2496 0.495615 85.2496 1.12312V19.8731C85.2496 20.5257 85.3501 20.601 85.9776 20.601H86.5047C87.1573 20.601 87.2326 20.5006 87.2326 19.8731V15.857L87.7346 15.355L92.0518 20.2245C92.3531 20.5759 92.3531 20.5759 92.8551 20.5759H93.7085C94.2105 20.5759 94.4364 20.4253 94.4364 20.1492C94.4364 20.0488 94.336 19.8731 94.1352 19.6221L89.1402 13.9745L93.1061 10.0337C93.332 9.80784 93.4324 9.63214 93.4324 9.53174C93.4324 9.23054 93.2316 9.07994 92.7296 9.07994H91.8761ZM13.8046 27.1774C14.0305 27.4033 14.407 27.4033 14.6329 27.1774L18.3728 23.4374C18.5987 23.2115 18.5987 22.835 18.3728 22.6091L14.6329 18.8692C14.407 18.6433 14.0305 18.6433 13.8046 18.8692L10.0646 22.6091C9.83872 22.835 9.83872 23.2115 10.0646 23.4374L13.8046 27.1774ZM23.9722 17.8149C23.7463 18.0408 23.3698 18.0408 23.1439 17.8149L19.4039 14.075C19.178 13.8491 19.178 13.4726 19.4039 13.2467L23.1439 9.50673C23.3698 9.28082 23.7463 9.28082 23.9722 9.50673L27.7121 13.2467C27.938 13.4726 27.938 13.8491 27.7121 14.075L23.9722 17.8149ZM9.08954 23.5128C9.34054 23.2869 9.51625 23.3622 9.51625 23.6885V26.1734C9.51625 26.4997 9.26524 26.6754 8.96404 26.5499L7.53332 25.8722C7.25721 25.7216 7.20701 25.3953 7.43292 25.1694L9.08954 23.5128ZM20.8887 25.8722C21.1648 25.7216 21.215 25.3953 20.9891 25.1694L19.3324 23.5128C19.1065 23.2869 18.9057 23.3622 18.9057 23.6885V26.1985C18.9057 26.5248 19.1567 26.6755 19.458 26.5751L20.8887 25.8722ZM22.8714 18.3421C23.1977 18.3421 23.4738 18.6182 23.4738 18.9445V22.3079C23.4738 22.6342 23.1977 22.9103 22.8714 22.9103H19.4829C19.1566 22.9103 18.8805 22.6342 18.8805 22.3079V18.9445C18.8805 18.6182 19.1566 18.3421 19.4829 18.3421H22.8714ZM26.4355 6.99663C26.2849 6.72052 25.9586 6.67032 25.7327 6.89623L24.0761 8.55285C23.8502 8.77875 23.9255 8.97956 24.2518 8.97956H26.7618C27.0881 8.97956 27.2387 8.72855 27.1383 8.42735L26.4355 6.99663ZM20.8887 1.44949C21.1648 1.60009 21.215 1.92639 20.9891 2.1523L19.3324 3.83402C19.0814 4.05993 18.9057 3.98462 18.9057 3.65832V1.14828C18.9057 0.82198 19.1567 0.646278 19.458 0.77178L20.8887 1.44949ZM2.6936 6.89623C2.4677 6.67032 2.14139 6.72052 1.99079 6.99663L1.31308 8.42735C1.18758 8.72855 1.36328 8.97956 1.68959 8.97956H4.19962C4.52593 8.97956 4.60123 8.80385 4.37532 8.55285L2.6936 6.89623ZM8.92169 4.41137C9.24799 4.41137 9.5241 4.68747 9.5241 5.01378H9.5492V8.37722C9.5492 8.70353 9.27309 8.97963 8.94679 8.97963H5.55824C5.23194 8.97963 4.95583 8.70353 4.95583 8.37722V5.01378C4.95583 4.68747 5.23194 4.41137 5.55824 4.41137H8.92169ZM9.51625 1.12332C9.51625 0.797018 9.26524 0.646416 8.96404 0.746817L7.53332 1.42453C7.25721 1.57513 7.20701 1.90143 7.43292 2.12734L9.08954 3.78396C9.31544 4.00986 9.51625 3.93456 9.51625 3.60826V1.12332ZM26.7366 18.3421C27.0629 18.3421 27.2386 18.5931 27.1131 18.8943L26.4102 20.325C26.2596 20.6011 25.9333 20.6513 25.7074 20.4254L24.0508 18.7688C23.8249 18.5178 23.9002 18.3421 24.2265 18.3421H26.7366ZM9.5241 18.9445C9.5241 18.6182 9.24799 18.3421 8.92169 18.3421H5.55824C5.23194 18.3421 4.95583 18.6182 4.95583 18.9445V22.3079C4.95583 22.6342 5.23194 22.9103 5.55824 22.9103H8.94679C9.27309 22.9103 9.5492 22.6342 9.5492 22.3079V18.9445H9.5241ZM4.17281 18.3421C4.49912 18.3421 4.57442 18.5429 4.34852 18.7688L2.66679 20.4254C2.44089 20.6513 2.11459 20.6011 1.96398 20.325L1.28627 18.8943C1.18587 18.5931 1.33648 18.3421 1.66278 18.3421H4.17281ZM23.4738 8.37722C23.4738 8.70353 23.1977 8.97963 22.8714 8.97963H19.4829C19.1566 8.97963 18.8805 8.70353 18.8805 8.37722V5.01378C18.8805 4.68747 19.1566 4.41137 19.4829 4.41137H22.8714C23.1977 4.41137 23.4738 4.68747 23.4738 5.01378V8.37722ZM4.47354 17.8149C4.69945 18.0408 5.07595 18.0408 5.30185 17.8149L9.04181 14.075C9.26771 13.8491 9.26771 13.4726 9.04181 13.2467L5.30185 9.50672C5.05085 9.25572 4.67435 9.25572 4.44844 9.50672L0.70849 13.2467C0.482587 13.4726 0.482587 13.8491 0.70849 14.075L4.47354 17.8149Z" fill="black"/>
</svg>
