<?xml version="1.0" encoding="utf-8"?>
<!-- Generator: Adobe Illustrator 25.3.1, SVG Export Plug-In . SVG Version: 6.00 Build 0)  -->
<svg width="99" version="1.1" id="Layer_1" xmlns="http://www.w3.org/2000/svg" xmlns:xlink="http://www.w3.org/1999/xlink" x="0px" y="0px"
	 viewBox="0 0 99 23.4" style="enable-background:new 0 0 99 23.4;" xml:space="preserve">
<g>
	<path d="M0,12.3c0.6-0.6,1-0.4,1.2,0.3c0.5,1.6,1.4,3,3,3.7c1.1,0.5,2.2,0.6,3.3,0c1.1-0.5,1.7-1.4,1.7-2.7c0-0.7-0.3-1.3-0.8-1.6
		c-0.7-0.4-1.4-0.8-2.2-1.1c-1.1-0.5-2.3-0.9-3.4-1.5C1,8.7,0.1,7.2,0.2,5.3c0.1-2,1-3.6,2.9-4.4c2-1,4.1-0.9,6.1-0.2
		c0.6,0.2,0.7,0.2,1.1-0.3C10.5,0.1,10.7-0.1,11,0c0.3,0.1,0.4,0.3,0.4,0.6c0.2,1.4,0.3,2.8,0.5,4.2c0,0.3-0.1,0.6-0.4,0.6
		c-0.3,0.1-0.5-0.1-0.7-0.4c-0.3-0.7-0.6-1.4-1.1-2c-0.8-1-1.8-1.6-3.2-1.6C5.3,1.5,4.2,2.4,4,3.6C3.8,4.5,4.1,5.2,4.9,5.7
		c0.8,0.5,1.6,0.8,2.5,1.2c1,0.4,2,0.7,2.9,1.2c1.3,0.6,2.3,1.6,2.7,3.1c0.6,2.8-0.9,5.6-3.8,6.6c-2.3,0.8-4.5,0.6-6.6-0.6
		c-0.5-0.3-0.7-0.2-1,0.2c0,0.1-0.1,0.2-0.1,0.2C1.2,17.9,1,18,0.7,17.9c-0.3-0.1-0.4-0.3-0.4-0.6c-0.1-1.3-0.1-2.6-0.2-3.9
		C0.1,13.2,0,13.1,0,13C0,12.8,0,12.6,0,12.3z"/>
	<path d="M43.8,23.4c-0.9,0-1.9,0-2.8,0c-0.3,0-0.6,0-0.7-0.4c0-0.4,0.2-0.5,0.5-0.6c0.6-0.2,0.8-0.5,0.8-1.2c0-2.8,0-5.5,0-8.3
		c0-1,0-1.9,0-2.9c0-0.3,0-0.6-0.1-0.8c-0.1-0.5-0.3-0.9-0.9-1.1c-0.3-0.1-0.5-0.3-0.4-0.6c0-0.3,0.3-0.4,0.5-0.5
		c1.3-0.3,2.7-0.5,4-0.8c0.5-0.1,0.6,0,0.8,0.5c0.2,0.7,0.4,0.8,1,0.4c1.9-1.1,4.1-1.1,5.7,0.2c1.1,0.9,1.8,2.1,1.9,3.5
		c0.2,2.4-0.4,4.5-2.4,5.9c-1.6,1.2-3.4,1.4-5.2,0.6c-0.5-0.2-0.8,0-0.8,0.5c0,1,0,2,0,3.1c0,0.8,0.2,1.4,1.1,1.5
		c0.3,0,0.4,0.3,0.3,0.5c-0.1,0.3-0.2,0.4-0.5,0.4C45.8,23.4,44.8,23.4,43.8,23.4C43.8,23.4,43.8,23.4,43.8,23.4z M45.8,12.5
		C45.8,12.5,45.8,12.5,45.8,12.5c0,0.7,0,1.4,0,2.1c0,0.1,0,0.2,0,0.3c0.1,1.1,0.7,1.7,1.8,1.6c0.9-0.1,1.4-0.7,1.7-1.4
		c0.6-1.3,0.7-2.8,0.4-4.2c-0.2-0.8-0.5-1.6-1.2-2.2c-0.6-0.5-1.2-0.6-1.9-0.3c-0.6,0.2-0.9,0.8-0.9,1.4
		C45.8,10.6,45.8,11.6,45.8,12.5z"/>
	<path d="M19.1,12.4c0,1.1,0,2.2,0,3.3c0,0.5,0.2,0.8,0.7,1c0.3,0.1,0.4,0.3,0.4,0.6c-0.1,0.3-0.3,0.4-0.6,0.4
		c-1.4,0-2.7-0.1-4.1-0.1c-0.5,0-0.9,0-1.4,0.1c-0.3,0-0.5-0.1-0.6-0.4c-0.1-0.3,0.1-0.5,0.4-0.6c0.8-0.2,0.9-0.4,0.9-1.2
		c0-1.8,0-3.5,0-5.3c0-0.7-0.2-1.3-1-1.5c-0.3-0.1-0.4-0.3-0.3-0.5c0-0.3,0.2-0.4,0.4-0.5c1.3-0.3,2.6-0.7,3.9-1
		c0.4-0.1,0.6,0,0.7,0.4c0.2,0.5,0.4,0.6,0.9,0.3c1.1-0.7,2.4-1,3.7-0.8c2,0.3,3.2,1.5,3.3,3.6c0.1,1.1,0,2.2,0,3.2
		c0,0.7,0,1.4,0,2.1c0,0.7,0.2,1,0.9,1.1c0,0,0,0,0,0c0.3,0.1,0.5,0.2,0.4,0.6c-0.1,0.3-0.3,0.4-0.6,0.4c-1.1,0-2.1-0.1-3.2-0.1
		c-0.7,0-1.3,0-2,0.1c-0.3,0-0.6,0-0.7-0.4c-0.1-0.4,0.1-0.6,0.5-0.7c0.4-0.1,0.6-0.4,0.6-0.8c0-0.2,0-0.3,0-0.5
		c0-1.8,0-3.6-0.1-5.3c-0.1-1.5-1.1-2.2-2.5-1.6c-0.2,0.1-0.3,0.2-0.5,0.2C19.2,8.9,19,9.2,19,9.6C19.1,10.5,19,11.5,19.1,12.4
		C19.1,12.4,19.1,12.4,19.1,12.4z"/>
	<path d="M73.4,12.4c0,1.1,0,2.2,0,3.3c0,0.5,0.2,0.8,0.7,1c0.3,0.1,0.4,0.3,0.4,0.6c-0.1,0.3-0.3,0.4-0.6,0.4
		c-1.4,0-2.8-0.1-4.3-0.1c-0.4,0-0.8,0-1.2,0.1c-0.3,0-0.5-0.1-0.6-0.4c-0.1-0.3,0.1-0.5,0.4-0.6c0.8-0.2,0.9-0.3,0.9-1.2
		c0-1.8,0-3.5,0-5.3c0-0.7-0.2-1.2-1-1.5c-0.2-0.1-0.3-0.4-0.3-0.5c0-0.2,0.2-0.4,0.4-0.5c1.3-0.4,2.6-0.7,3.9-1
		c0.4-0.1,0.6,0,0.7,0.4c0.2,0.5,0.4,0.6,0.9,0.3c1.1-0.7,2.4-1,3.7-0.8c2,0.3,3.2,1.5,3.3,3.6c0.1,1.3,0,2.7,0,4c0,0.5,0,1,0,1.4
		c0,0.7,0.2,0.9,0.9,1.1c0,0,0.1,0,0.1,0c0.3,0.1,0.5,0.3,0.4,0.6c-0.1,0.3-0.3,0.4-0.6,0.4c-1,0-2-0.1-3.1-0.1
		c-0.7,0-1.5,0-2.2,0.1c-0.3,0-0.6,0-0.7-0.4c-0.1-0.3,0.1-0.6,0.4-0.7c0.5-0.1,0.7-0.5,0.7-1c0-0.8,0-1.7,0-2.5c0-1,0-2.1-0.1-3.1
		c-0.1-1.5-1-2.1-2.4-1.6c-0.2,0.1-0.3,0.1-0.5,0.2c-0.5,0.2-0.7,0.5-0.6,1.1C73.4,10.6,73.3,11.5,73.4,12.4
		C73.4,12.4,73.4,12.4,73.4,12.4z"/>
	<path d="M39,12.2c0,0.9,0,1.9,0,2.8c0,0.2,0,0.4,0,0.5c0.1,0.6,0.4,0.7,1,0.4c0.2-0.1,0.5-0.2,0.7,0c0.2,0.2,0.2,0.4,0,0.6
		c-0.8,0.8-2.3,1.8-3.8,1.3c-0.5-0.2-1-0.4-1.4-0.8c-0.3-0.4-0.5-0.4-0.9-0.1c-1.1,0.7-2.3,1.2-3.7,1.1c-1-0.1-1.9-0.4-2.3-1.4
		c-0.4-1-0.2-2,0.5-2.8c0.7-0.9,1.7-1.4,2.8-1.8c0.8-0.3,1.7-0.5,2.6-0.7c0.5-0.1,0.6-0.2,0.6-0.8c0-0.4,0-0.9,0-1.3
		c0-0.8-0.5-1.2-1.3-1.3c-0.9-0.1-1.5,0.4-1.6,1.1C32,9.6,32,9.9,31.9,10.2c-0.1,0.6-0.5,0.9-1.1,1.1c-0.6,0.1-1.2,0-1.6-0.5
		c-0.4-0.5-0.3-1-0.1-1.6c0.3-0.6,0.8-0.9,1.3-1.2c2-1.1,4.1-1.5,6.3-1.1C38.3,7,39,7.9,39,9.5C39,10.4,39,11.3,39,12.2
		C39,12.2,39,12.2,39,12.2z M35,14.2C35,14.2,35,14.2,35,14.2c0-0.4,0-0.7,0-1.1c0-0.3-0.2-0.5-0.5-0.5c-0.7,0.1-1.4,0.4-1.8,1.1
		c-0.4,0.6-0.3,1.5,0.2,2c0.4,0.4,1.2,0.5,1.8,0.1c0.3-0.1,0.4-0.3,0.4-0.7C34.9,14.8,35,14.5,35,14.2z"/>
	<path d="M61.4,9c0-1.7,0-3.3,0-5c0-0.3,0-0.6,0-1c-0.1-1-0.3-1.2-1.3-1.4c-0.3-0.1-0.5-0.1-0.6-0.4c-0.1-0.4,0.2-0.7,0.6-0.7
		c0.9,0,1.8,0,2.6,0c1.4,0,2.8,0,4.3,0c0.1,0,0.2,0,0.3,0c0.2,0.1,0.4,0.3,0.4,0.5c0,0.2-0.2,0.4-0.3,0.5c-0.1,0.1-0.3,0.1-0.5,0.1
		c-0.7,0.1-0.9,0.4-1,1.1c0,0.3-0.1,0.6-0.1,0.8c0,3.8,0,7.6,0.1,11.4c0,0.2,0,0.4,0.1,0.6c0.1,0.5,0.4,0.8,0.9,1
		c0.1,0,0.3,0.1,0.5,0.1c0.3,0.1,0.5,0.3,0.4,0.6c0,0.3-0.2,0.5-0.6,0.5c-0.3,0-0.6,0-0.9,0c-2,0-4,0-6,0.1c-0.4,0-0.7-0.2-0.7-0.5
		c0-0.3,0.2-0.5,0.6-0.6c0.8-0.2,1.1-0.4,1.2-1.3c0.1-0.5,0.1-1.1,0.1-1.6C61.4,12.2,61.4,10.6,61.4,9C61.4,9,61.4,9,61.4,9z"/>
	<path d="M89,6.6c1.1,0,2.2,0.2,3.2,0.8c0.7,0.4,1.2,0.9,1.4,1.6c0.2,0.8-0.2,1.6-1,1.9c-0.7,0.3-1.5-0.1-1.9-0.8
		c-0.1-0.3-0.2-0.6-0.4-0.8C90.2,9,90,8.7,89.8,8.4c-0.6-0.8-1.6-0.8-2.1,0.1c-0.3,0.6-0.5,1.2-0.6,1.8c-0.3,1.4-0.1,2.8,0.6,4.1
		c0.6,1,1.5,1.7,2.7,1.7c0.7,0,1.3-0.3,1.9-0.8c0.1-0.1,0.2-0.2,0.3-0.3c0.3-0.2,0.6-0.2,0.8,0.1c0.2,0.2,0.2,0.6,0,0.8
		c-0.3,0.3-0.6,0.6-0.9,0.8c-2,1.3-4.2,1.7-6.4,0.9c-2.3-0.8-3.7-2.9-3.7-5.3c0-2.4,1.4-4.4,3.8-5.3C86.6,7,87,6.9,87.5,6.8
		C88,6.7,88.5,6.7,89,6.6z"/>
	<path d="M99,16c0,1.2-1,2.2-2.2,2.2c-1.2,0-2.2-1-2.2-2.2c0-1.3,1-2.2,2.2-2.2C98,13.8,99,14.7,99,16z"/>
</g>
</svg>
