<?xml version="1.0" encoding="utf-8"?>
<!-- Generator: Adobe Illustrator 25.3.1, SVG Export Plug-In . SVG Version: 6.00 Build 0)  -->
<svg width="130" version="1.1" id="Layer_1" xmlns="http://www.w3.org/2000/svg" xmlns:xlink="http://www.w3.org/1999/xlink" x="0px" y="0px"
	 viewBox="0 0 130 18.2" style="enable-background:new 0 0 130 18.2;" xml:space="preserve">
<g>
	<path d="M17.5,18.2c-0.2-0.1-0.4-0.2-0.5-0.2c-2.2-0.5-4-1.7-5.2-3.7c-2-3.1-4-6.2-5.9-9.4C4.5,2.5,2.7,0.9,0,0.3
		c4.4-0.5,7.7,0,10.3,4.3c1.9,3.2,3.9,6.3,5.9,9.4c0.9,1.4,2,2.4,3.4,3.2c0.9,0.5,1.7,0.5,2.5,0c0.3-0.2,0.6-0.3,0.9-0.5
		c2.4-1.6,2.5-1.9,1-4.3c-1.6-2.6-3.2-5.1-4.8-7.7c-1.3-2.2-3.1-3.8-5.9-4.4c3.9-0.4,7.8-0.5,10.9,5.1c0.4-0.6,0.7-1.1,1.1-1.6
		C27,1.4,29.2,0.2,32,0.2c1.7,0,3.4,0,5.1,0c2.8,0.1,5.8,2.1,6.6,4.5c-1.4,0-2.7,0-4,0c-0.3,0-0.6-0.4-0.8-0.7
		c-1-1.4-2.2-2.5-3.8-3.1c-0.5-0.2-1.1-0.2-1.6,0c-1.6,0.6-2.8,1.6-3.7,3c-1,1.6-2,3.1-2.9,4.7c-0.2,0.3-0.2,0.9,0,1.2
		c1,1.6,2,3.2,3,4.8c0.4,0.6,0.9,1.1,1.4,1.6c2.9,2.7,4.7,1.4,7.1-1.3c0.1-0.1,0.1-0.5,0-0.7c-1.4-2.6-3.4-4.5-6.5-4.9
		c4.7-0.5,8.2-0.1,10.8,4.5c1.4,2.6,3.7,3.9,6.5,4.5c-1.6,0-3.2,0-4.7,0c-1.1-0.4-2.1-0.8-3.2-1.2c-0.2-0.1-0.4-0.1-0.6,0
		c-1.1,0.4-2.1,0.8-3.2,1.2c-2.1,0-4.3,0-6.4,0c-1.1-0.4-2.2-0.8-3.3-1.3c-0.1-0.1-0.3,0-0.5,0c-1.1,0.4-2.1,0.8-3.2,1.2
		C21.9,18.2,19.7,18.2,17.5,18.2z"/>
	<path d="M95.3,0c0,2.3,0,4.6,0,6.9c-0.7,0.3-0.8,0-0.8-0.6c0-1.4,0-2.9-0.2-4.4C93.6,2.9,92.9,4,92,5.2c-0.8-1.2-1.6-2.2-2.4-3.5
		c0,1.9,0,3.5,0,5.2C88.7,7,88.7,7,88.7,6.3c0-2.1,0-4.2,0-6.3c0.3,0,0.6,0,0.8,0c0.8,1.2,1.6,2.5,2.5,3.9c0.9-1.4,1.7-2.6,2.4-3.9
		C94.8,0,95,0,95.3,0z"/>
	<path d="M88.7,18.2c-1.4-0.6-2.5-1.4-2.8-3.1c-0.3-1.9,0.9-3.7,2.7-4.1c1.8-0.4,3.6,0.5,4.2,2.3c0.6,1.8-0.2,3.8-1.9,4.6
		c-0.2,0.1-0.5,0.2-0.7,0.3C89.7,18.2,89.2,18.2,88.7,18.2z M92.1,14.5c0-1.6-1.1-2.8-2.6-2.8c-1.5,0-2.7,1.2-2.7,2.8
		c0,1.6,1.2,2.8,2.7,2.8C91,17.3,92.1,16.1,92.1,14.5z"/>
	<path d="M57.8,18.2c-2.5-1.1-3.4-2.9-2.6-5.1c0.9-2.3,3.9-2.9,5.7-1c-0.3,0-0.6,0.1-0.9,0c-1.3-0.6-2.4-0.6-3.3,0.2
		c-0.9,0.8-1.2,2.1-0.8,3.3c0.6,1.7,2.9,2.4,4.2,1.2c0.4-0.3,0.3-1.1,0.5-1.7c-0.8-0.1-1.5-0.2-2.2-0.3c0,0,0-0.3,0-0.5
		c0.9,0,1.8,0,2.7,0c0.6,2.2,0.3,2.9-1.9,3.9C58.7,18.2,58.2,18.2,57.8,18.2z"/>
	<path d="M103.6,0c1,2.3,2.1,4.6,3.1,6.9c-0.7,0.3-1-0.1-1.2-0.6c-0.2-0.9-0.7-1.2-1.6-1.1c-0.3,0-0.6,0-0.9,0
		c-1.1-0.1-1.9,0.1-2.2,1.3c-0.1,0.3-0.5,0.4-0.8,0.6c-0.1-0.1-0.1-0.1-0.2-0.2c1-2.3,2-4.6,3-6.9C103,0,103.3,0,103.6,0z
		 M104.7,4.4c-0.5-1.1-1-2.1-1.5-3.4c-0.6,1.3-1,2.3-1.5,3.4C102.7,4.4,103.6,4.4,104.7,4.4z"/>
	<path d="M126.9,18.2c-0.7-0.3-1.4-0.7-2.2-1c0-0.1,0-0.3,0.1-0.4c0.3,0,0.6-0.1,0.9,0c0.8,0.2,1.5,0.5,2.2,0.5c0.4,0,0.9-0.6,1.1-1
		c0.2-0.6-0.3-1-0.9-1.2c-0.6-0.2-1.3-0.3-1.9-0.5c-0.8-0.3-1.3-0.8-1.3-1.8c0-0.9,0.5-1.5,1.4-1.7c1.2-0.4,2.3-0.1,3.3,1
		c-0.3,0-0.6,0.1-0.9,0.1c-0.7-0.1-1.4-0.4-2.1-0.3c-0.3,0-0.8,0.5-0.8,0.9c0,0.3,0.3,0.8,0.6,1c0.4,0.3,1,0.4,1.5,0.5
		c0.9,0.2,1.6,0.6,2,1.5c0,0.3,0,0.6,0,0.8c-0.6,0.6-1.2,1.1-1.9,1.7C127.7,18.2,127.3,18.2,126.9,18.2z"/>
	<path d="M55.7,0c0,1.2,0,2.4,0,3.6c0,1.9,0.7,2.8,2.1,2.8c1.4,0,2-0.9,2-2.8C59.9,2.4,60,1.2,60,0c0.2,0,0.4,0,0.6,0
		c0,1.4,0.1,2.9,0,4.3c0,1.8-1.1,2.8-2.8,2.9c-1.6,0-2.8-0.9-2.9-2.7c-0.1-1.5,0-3-0.1-4.5C55.1,0,55.4,0,55.7,0z"/>
	<path d="M117.4,18.2c-1.7-0.7-2.9-1.8-2.8-3.8c0.1-1.4,0.7-2.6,2.1-3.1c1.5-0.6,2.8-0.3,4.1,0.7c-0.2,0.2-0.3,0.4-0.5,0.7
		c-0.2-0.1-0.3-0.2-0.4-0.2c-1.3-0.9-2.8-0.9-3.7,0.1c-1,1-1,2.8-0.1,3.9c0.9,1.1,2.3,1.2,3.7,0.4c0.3-0.2,0.6-0.1,0.9-0.2
		c0.1,0.1,0.1,0.3,0.2,0.4c-0.7,0.4-1.4,0.8-2.1,1.2C118.4,18.2,117.9,18.2,117.4,18.2z"/>
	<path d="M78.4,0c0,0.3,0.1,0.5,0.1,0.9c-0.8,0-1.5,0-2.3,0c0,2.1,0,4,0,6C75.4,7,75.3,7,75.3,6.2c0-1.7,0-3.5,0-5.3
		c-0.8,0-1.5,0-2.3,0c0-0.4,0-0.6,0-0.9C74.8,0,76.6,0,78.4,0z"/>
	<path d="M66.2,0c0,2.1,0,4.1,0,6.2c1.4,0.1,2.6,0.2,3.9,0.3c0,0,0,0.3,0,0.5c-1.6,0-3.1,0-4.5,0c0-2.4,0-4.7,0-7
		C65.8,0,66,0,66.2,0z"/>
	<path d="M83.8,0c0,2.3,0,4.6,0,6.8c-0.8,0.4-0.8,0-0.8-0.6c0-2.1,0-4.2,0-6.3C83.2,0,83.5,0,83.8,0z"/>
	<path d="M100.9,14.6c1.2-1.1,1.5-2.9,3.3-3.8c0,2.4,0,4.6,0,6.7c0,0.2-0.3,0.4-0.5,0.6c-0.1-0.1-0.2-0.1-0.3-0.2c0-1.7,0-3.4,0-5.4
		c-0.9,1.3-1.6,2.4-2.5,3.6c-0.8-1.1-1.6-2.2-2.3-3.3c-0.1,0-0.1,0-0.2,0c0,1.4,0,2.9,0,4.3c0,0.3-0.3,0.6-0.4,0.8
		c-0.1-0.1-0.2-0.1-0.3-0.2c0-0.3,0-0.6,0-0.9c0-1.9,0-3.9,0-6.2C99.5,11.6,99.7,13.5,100.9,14.6z"/>
	<path d="M66.8,17.1c1.4,0.1,2.7,0.2,4.1,0.3c0,0,0,0.3,0,0.5c-1.7,0-3.3,0-5,0c0-2.3,0-4.5,0-6.8c1.6,0,3.2,0,4.8,0
		c0.1,0,0.1,0.3,0.2,0.6c-1.4,0-2.7,0-4.1,0c0,0.8,0,1.4,0,2.1c1.1,0.6,2.6-0.4,3.7,0.5c0,0.1,0,0.3-0.1,0.4c-1.2,0-2.4,0-3.6,0
		C66.8,15.6,66.8,16.3,66.8,17.1z"/>
	<path d="M76.3,12.8c0,1.5,0,2.9,0,4.4c0,0.5,0,0.9-0.8,0.7c0-2.2,0-4.5,0-7.1c0.5,0.4,0.9,0.5,1.2,0.9c1.2,1.5,2.4,3,3.8,4.5
		c0-1.4,0-2.8,0-4.2c0-0.3,0.2-0.6,0.3-0.9c0.1,0,0.2,0.1,0.3,0.1c0,2.3,0,4.5,0,7.1c-0.5-0.4-0.8-0.6-1.1-0.9
		c-1.2-1.5-2.4-3.1-3.6-4.6C76.5,12.7,76.4,12.8,76.3,12.8z"/>
	<path d="M109.2,17.8c0-2,0-4.1,0-6.1c0-0.2,0.3-0.4,0.4-0.6c0.1,0.2,0.4,0.4,0.4,0.7c0,1.9,0,3.8,0,5.6c0,0.2-0.3,0.5-0.5,0.7
		C109.4,18,109.3,17.9,109.2,17.8z"/>
</g>
</svg>
