<svg width="37" height="37" viewBox="0 0 37 37" fill="none" xmlns="http://www.w3.org/2000/svg">
<path fill-rule="evenodd" clip-rule="evenodd" d="M18.5 0C13.3326 0 8.657 2.12202 5.30299 5.54961C2.02322 8.87941 0 13.4564 0 18.5C0 23.544 2.02284 28.1206 5.3029 31.4503C8.6572 34.8779 13.3325 37 18.5 37C23.6676 37 28.3432 34.8779 31.6973 31.4501C34.9769 28.1204 37 23.5438 37 18.5C37 13.4563 34.9769 8.87939 31.6971 5.54974C28.3428 2.12209 23.6675 0 18.5 0ZM13.5322 2.2819C11.0496 3.04266 8.8094 4.35937 6.95605 6.08947C7.86302 6.93609 8.86258 7.68372 9.93782 8.31565C10.2889 7.34286 10.6894 6.43383 11.1338 5.60076C11.8186 4.31664 12.6247 3.1854 13.5322 2.2819ZM9.45119 9.81415C8.15435 9.08376 6.95441 8.20101 5.87564 7.18983C3.34031 10.0078 1.74011 13.6845 1.55889 17.7292H8.28217C8.34565 14.8839 8.75909 12.1958 9.45119 9.81415ZM8.28217 19.2708H1.55888C1.74005 23.3159 3.34003 26.9923 5.87551 29.8101C6.95426 28.7989 8.15425 27.9162 9.45117 27.1858C8.75908 24.8042 8.34565 22.1161 8.28217 19.2708ZM9.82422 19.2708H17.7291V24.8368C15.2847 24.9372 12.962 25.5126 10.8516 26.4741C10.2514 24.3142 9.88495 21.8727 9.82422 19.2708ZM17.7291 17.7292H9.82422C9.88495 15.1273 10.2514 12.6858 10.8516 10.5259C12.962 11.4875 15.2846 12.0629 17.7291 12.1633V17.7292ZM19.2707 19.2708V24.8368C21.7153 24.9371 24.0381 25.5126 26.1487 26.4742C26.7488 24.3143 27.1153 21.8727 27.1761 19.2708H19.2707ZM27.1761 17.7292H19.2707V12.1633C21.7153 12.063 24.0381 11.4876 26.1487 10.526C26.7489 12.6858 27.1153 15.1274 27.1761 17.7292ZM28.7181 19.2708C28.6546 22.1162 28.2412 24.8043 27.5491 27.186C28.8458 27.9163 30.0457 28.799 31.1244 29.8101C33.6597 26.9922 35.2599 23.3157 35.4411 19.2708H28.7181ZM35.4411 17.7292H28.7181C28.6546 14.8839 28.2412 12.1959 27.5491 9.81429C28.846 9.08394 30.0459 8.20123 31.1246 7.19011C33.6599 10.0079 35.2599 13.6845 35.4411 17.7292ZM11.3158 27.9579C13.2776 27.037 15.4445 26.4822 17.7291 26.3799V35.3889C15.8104 35.0438 13.957 33.4167 12.494 30.6737C12.0555 29.8514 11.6599 28.9415 11.3158 27.9579ZM19.2707 26.3799V35.389C21.1895 35.0441 23.0432 33.417 24.5063 30.6737C24.9448 29.8515 25.3403 28.9416 25.6845 27.958C23.7225 27.0369 21.5555 26.4822 19.2707 26.3799ZM19.2707 1.61096V10.6202C21.5555 10.518 23.7226 9.96323 25.6845 9.04221C25.3404 8.05858 24.9448 7.14859 24.5063 6.32626C23.0432 3.58303 21.1895 1.95595 19.2707 1.61096ZM17.7291 10.6202V1.61106C15.8104 1.95625 13.957 3.58329 12.494 6.32626C12.0555 7.14856 11.6599 8.05852 11.3158 9.04211C13.2776 9.96313 15.4445 10.5179 17.7291 10.6202ZM9.9378 28.6843C8.8625 29.3162 7.86292 30.0638 6.95598 30.9104C8.80947 32.6405 11.0497 33.9573 13.5322 34.7181C12.6247 33.8146 11.8186 32.6833 11.1338 31.3992C10.6894 30.5662 10.2888 29.6571 9.9378 28.6843ZM23.4682 34.718C25.9506 33.9572 28.1907 32.6405 30.044 30.9105C29.1371 30.0639 28.1376 29.3164 27.0624 28.6845C26.7114 29.6572 26.3108 30.5662 25.8665 31.3992C25.1817 32.6833 24.3757 33.8145 23.4682 34.718ZM27.0625 8.3158C28.1378 7.6839 29.1373 6.93632 30.0442 6.08977C28.1908 4.35964 25.9507 3.04289 23.4682 2.28206C24.3757 3.18554 25.1817 4.31672 25.8665 5.60076C26.3109 6.43387 26.7115 7.34295 27.0625 8.3158Z" fill="white"/>
</svg>
